<?xml version="1.0" encoding="UTF-8" standalone="no"?><!DOCTYPE svg PUBLIC "-//W3C//DTD SVG 1.1//EN" "http://www.w3.org/Graphics/SVG/1.1/DTD/svg11.dtd"><svg width="100%" height="100%" viewBox="0 0 1275 1435" version="1.1" xmlns="http://www.w3.org/2000/svg" xmlns:xlink="http://www.w3.org/1999/xlink" xml:space="preserve" xmlns:serif="http://www.serif.com/" style="fill-rule:evenodd;clip-rule:evenodd;stroke-linejoin:round;stroke-miterlimit:1.41421;"><path d="M1258.78,1076.09c10.004,-17.33 16.221,-36.854 16.221,-54.388l0,-608.621c0,-17.533 -6.208,-37.054 -16.217,-54.383l-621.283,358.696l621.279,358.696Z" style="fill:#803788;fill-rule:nonzero;"/><path d="M692.708,1421.64l527.084,-304.309c15.183,-8.766 28.983,-23.904 38.987,-41.237l-621.279,-358.696l-621.279,358.7c10.004,17.329 23.808,32.471 38.987,41.233l527.084,304.309c30.362,17.533 80.054,17.533 110.416,0Z" style="fill:#67217a;fill-rule:nonzero;"/><path d="M1258.78,358.696c-10.008,-17.333 -23.812,-32.471 -38.991,-41.238l-527.084,-304.308c-30.362,-17.533 -80.054,-17.533 -110.416,0l-527.084,304.308c-30.366,17.53 -55.208,60.563 -55.208,95.625l0,608.621c0,17.534 6.212,37.059 16.221,54.388l621.279,-358.696l621.283,-358.7Z" style="fill:#9b4f97;fill-rule:nonzero;"/><path d="M637.5,1142.4c-234.346,0 -425,-190.654 -425,-425c0,-234.346 190.654,-425 425,-425c151.217,0 292.246,81.375 368.046,212.367l-183.929,106.433c-37.938,-65.567 -108.492,-106.3 -184.117,-106.3c-117.175,0 -212.5,95.325 -212.5,212.5c0,117.171 95.325,212.5 212.5,212.5c75.633,0 146.188,-40.733 184.129,-106.313l183.929,106.43c-75.8,131.004 -216.833,212.383 -368.058,212.383Z" style="fill:#fff;fill-rule:nonzero;"/><path d="M1093.34,646.046l-47.225,0l0,-47.221l-47.216,0l0,47.221l-47.225,0l0,47.221l47.225,0l0,47.225l47.216,0l0,-47.225l47.225,0l0,-47.221Z" style="fill:#fff;fill-rule:nonzero;"/><path d="M1187.94,646.046l-47.225,0l0,-47.221l-47.216,0l0,47.221l-47.225,0l0,47.221l47.225,0l0,47.225l47.216,0l0,-47.225l47.225,0l0,-47.221Z" style="fill:#fff;fill-rule:nonzero;"/><path d="M1093.5,740.574l-47.225,0l0,-47.221l-47.217,0l0,47.221l-47.225,0l0,47.22l47.225,0l0,47.225l47.217,0l0,-47.225l47.225,0l0,-47.22Z" style="fill:#fff;fill-rule:nonzero;"/><path d="M1188.1,740.574l-47.225,0l0,-47.221l-47.216,0l0,47.221l-47.225,0l0,47.22l47.225,0l0,47.225l47.216,0l0,-47.225l47.225,0l0,-47.22Z" style="fill:#fff;fill-rule:nonzero;"/></svg>