<svg xmlns="http://www.w3.org/2000/svg" xmlns:xlink="http://www.w3.org/1999/xlink" viewBox="-1 278 86.1 86.1"><defs><path d="M73.6 279h.8l.3.2h.4l.3.1.4.1.3.2h.3l.4.2.3.2.3.2.3.1.3.2.3.2.3.3.3.2.2.2.3.3.2.2.3.3.2.3.2.2.2.3.2.3.2.3.2.4.1.3.2.3.1.3.1.4.1.3.1.4.1.3v.4l.1.3v.8l.1.4V353l-.1.3v.4l-.2.3v.4l-.2.3-.1.4-.1.3-.2.3-.1.4-.2.3-.2.3-.2.3-.2.3-.2.2-.2.3-.3.3-.2.2-.3.3-.2.2-.3.2-.3.3-.3.2-.3.2-.3.1-.3.2-.3.2-.3.1-.4.2h-.3l-.4.2h-.3l-.4.2H74l-.3.1h-66l-.3-.1-.4-.1-.3-.1-.4-.1-.3-.1-.4-.2-.3-.1-.3-.2-.3-.2-.3-.1-.3-.2-.3-.2-.3-.3-.3-.2-.2-.2-.3-.3-.2-.2-.3-.3-.2-.2-.2-.3-.2-.3-.2-.3-.2-.3-.2-.3-.1-.4-.2-.3-.1-.3-.1-.4-.1-.3-.1-.3-.1-.4v-.4L0 353v-66l.1-.3v-.4l.2-.3v-.4l.2-.3v-.4l.2-.3.2-.3.1-.3.2-.4.2-.3.2-.3.2-.3.2-.2.2-.3.3-.3.2-.2.3-.3.2-.2.3-.2.3-.3.3-.2.3-.2.3-.1.3-.2.3-.2.3-.1.4-.1.3-.2h.4l.3-.2h.4l.3-.1h.4l.4-.1h65.1ZM22 292.7h-1l-.2.1h-.3l-.2.2h-.2l-.3.1-.2.1-.2.2h-.2l-.2.2-.2.1-.2.2-.2.1-.2.2-.2.1-.1.2-.2.2-.2.2-.1.2-.2.2v.2l-.2.2-.1.2-.1.2-.1.2-.1.2-.1.3v.2l-.2.3v.4l-.1.3v1.9l.1.2v.3l.1.1v.1l.1.2v.1l.1.2.1.2v.1l.1.2.1.1v.1l.2.1v.2h.1l.1.2v.1l.2.1v.1l.1.1.1.1.1.1.1.1.1.1.1.1.1.2h.1l.1.1.2.1v41.1l.2.3v.3l.2.3.2.2.2.3.1.2.3.2.2.1.2.2.3.1.2.1.3.1.2.1h.3l.3.1h1.5l.3-.2h.2l.3-.2.2-.1.3-.2.2-.1.2-.2.2-.2.2-.3.1-.2.2-.3v-.3l.2-.3v-9.3l1.2-.6 1.1-.5 1.1-.4 1-.4 1-.3 1-.3.9-.3.9-.2.8-.2.9-.1h.8l.7-.2h2.2l.6.1h.7l.6.2h.6l.6.2.6.2.5.1.6.2.5.2.5.1.6.2.5.2.5.2.4.1.5.2.5.2.5.1.5.2h.4l.5.2h.5l.5.1h3.3l.3-.1h.3l.2-.1h.3l.2-.1h.3l.2-.1.3-.1h.3l.2-.1.3-.1h.2l.3-.2h.2l.3-.1.2-.1.3-.1h.2l.3-.2h.2l.2-.1.3-.1.2-.1.3-.1.2-.1.3-.1.2-.1.2-.1.3-.1.2-.1h.1v-.1h.2v-.1h.1v-.1h.1l.1-.1h.1v-.1l.1-.1.1-.1.1-.1.1-.1v-.1h.1v-.1l.1-.1v-.1l.1-.1v-26.3h-.1v-.1l-.1-.1v-.1H63v-.1l-.1-.1-.1-.1h-.1v-.1h-.4v-.1h-.5l-.1-.1h-.4l-.2.1-.1.1h-.2l-.3.2h-.2l-.2.2h-.3l-.3.2-.3.1-.3.2-.3.1-.3.1-.4.2-.3.1-.4.2H57l-.4.2-.4.1-.3.2h-.4l-.4.2h-.4l-.4.2H54l-.3.1h-.4l-.4.1h-2.2l-.4-.1-.3-.1-.4-.2-1-.3-.9-.4-.9-.3-.9-.2-.8-.3-.9-.2-.8-.2-.7-.1-.8-.2h-.7l-.7-.2h-2l-.6-.1h-1.2l-.6.1h-.5l-.6.2h-.5l-.5.2h-.5l-.5.2-.5.1-.4.2-.5.1-.5.2-.4.1-.5.2-.4.2-.5.1-.4.2-.4.2-.5.1-.4.2-.5.2-.4.1-.5.2v-3.4h.1l.1-.2h.1l.1-.2h.1l.1-.2h.1l.1-.2h.1l.1-.2h.1l.1-.2v-.1l.2-.1v-.1l.1-.2v-.1l.2-.1v-.3l.1-.1.1-.1v-.2l.1-.1v-.1l.1-.2v-.2l.1-.2v-.2l.1-.1v-.7l.1-.1v-1.4l-.1-.2v-.2l-.2-.3v-.2l-.1-.3-.1-.2-.1-.2-.1-.2-.1-.2-.2-.2-.1-.2-.1-.2-.2-.2-.2-.2-.1-.2-.2-.2-.2-.1-.1-.2-.2-.1-.2-.2-.2-.1-.2-.1-.3-.1-.2-.2h-.2l-.2-.1-.2-.1-.3-.1H24l-.3-.1h-.2l-.3-.1H22Z" id="a"/></defs><use xlink:href="#a" fill="#228ae6"/><use xlink:href="#a" fill-opacity="0" stroke="#000" stroke-opacity="0"/></svg>