<svg xmlns="http://www.w3.org/2000/svg" xmlns:xlink="http://www.w3.org/1999/xlink" viewBox="0 0 32 32"><defs><linearGradient id="c" x1="-7275" x2="-7244" y1="2083" y2="2046" gradientTransform="matrix(-.023 -.116 -.116 .023 80 -889)" gradientUnits="userSpaceOnUse"><stop offset="0" stop-color="#f69923"/><stop offset="0" stop-color="#f79a23"/><stop offset="1" stop-color="#e97826"/></linearGradient><linearGradient id="a" x1="-7504" x2="-7283" y1="2087" y2="2087" gradientTransform="matrix(-.023 -.116 -.116 .023 80 -889)" gradientUnits="userSpaceOnUse"><stop offset="0" stop-color="#9e2064"/><stop offset="1" stop-color="#c92037"/><stop offset="1" stop-color="#cd2335"/><stop offset="1" stop-color="#e97826"/></linearGradient><linearGradient id="b" x1="-7477" x2="-7346" y1="2064" y2="2064" gradientTransform="matrix(-.023 -.116 -.116 .023 80 -889)" gradientUnits="userSpaceOnUse"><stop offset="0" stop-color="#282662"/><stop offset="0" stop-color="#662e8d"/><stop offset="1" stop-color="#9f2064"/><stop offset="1" stop-color="#cd2032"/></linearGradient><linearGradient xlink:href="#a" id="d" x1="-7491" x2="-7271" y1="2089" y2="2089"/><linearGradient xlink:href="#b" id="e" x1="-7475" x2="-7359" y1="2086" y2="2086"/><linearGradient xlink:href="#a" id="f" x1="-7491" x2="-7271" y1="2066" y2="2066"/><linearGradient xlink:href="#a" id="g" x1="-7505" x2="-7284" y1="2067" y2="2067"/><linearGradient xlink:href="#c" id="h" x1="-8308" x2="-8277" y1="2040" y2="2004" gradientTransform="scale(.134 -.134) rotate(57 -2152 8873)"/><linearGradient xlink:href="#a" id="i" x1="-8537" x2="-8316" y1="2044" y2="2044" gradientTransform="scale(.134 -.134) rotate(57 -2152 8873)"/><linearGradient xlink:href="#b" id="j" x1="-8510" x2="-8378" y1="2022" y2="2022" gradientTransform="scale(.134 -.134) rotate(57 -2152 8873)"/><linearGradient xlink:href="#a" id="k" x1="-8524" x2="-8303" y1="2046" y2="2046" gradientTransform="scale(.134 -.134) rotate(57 -2152 8873)"/><linearGradient xlink:href="#b" id="l" x1="-8508" x2="-8392" y1="2043" y2="2043" gradientTransform="scale(.134 -.134) rotate(57 -2152 8873)"/><linearGradient xlink:href="#a" id="m" x1="-8524" x2="-8303" y1="2023" y2="2023" gradientTransform="scale(.134 -.134) rotate(57 -2152 8873)"/><linearGradient xlink:href="#a" id="n" x1="-8538" x2="-8317" y1="2024" y2="2024" gradientTransform="scale(.134 -.134) rotate(57 -2152 8873)"/><linearGradient xlink:href="#a" id="o" x1="-8524" x2="-8303" y1="2017" y2="2017" gradientTransform="scale(.134 -.134) rotate(57 -2152 8873)"/></defs><path d="M6 3a10 10 0 0 0 0 2l1 1a18 18 0 0 1 0-3 16 16 0 0 0 0 3 28 28 0 0 0 2-2 3 3 0 0 0-1-2S6 2 6 3" fill="url(#c)"/><path d="M10 10Zm1 2h-1a2 2 0 0 0 1 0m-1 8-1-2v-1a104 104 0 0 1-1-3v-3 1-1 5l1 1v1a66 66 0 0 0 1 2v1-1" fill="none"/><path d="M11 13a6 6 0 0 1 0 1 1 1 0 0 0 0-1m-1-1h1-1Z" fill="#be202e"/><path d="M7 10V7a23 23 0 0 1 0-1L6 5v2a78 78 0 0 0 0 2v1l2 1-1-1" fill="url(#a)"/><path d="m10 21 1 1v2a2 2 0 0 1 1 0 2 2 0 0 0-1-1 3 3 0 0 0 2-3 1 1 0 0 1-1 1 4 4 0 0 0 1-2l-1-1a3 3 0 0 1-1 3h-1" fill="url(#b)"/><path d="M9 20v-3l-1-1v-3a29 29 0 0 1 0-1v-1l-2-1a1 1 0 0 1 0 1v4a28 28 0 0 0 1 2v2l1 1 2 1v-1z" fill="url(#d)"/><path d="M8 20a15 15 0 0 0 1 2 4 4 0 0 0-2 0 5 5 0 0 1 3 1 2 2 0 0 1-1 1 2 2 0 0 0 1 0 3 3 0 0 0-1 1 3 3 0 0 1 1-1 140 140 0 0 0 2 6 1 1 0 0 0 0-1 131 131 0 0 1-2-6v-2l-2-1" fill="url(#e)"/><path d="M8 11v3l1 2v2l1 2v1h1a6 6 0 0 0 1-3 8 8 0 0 0 0-2 12 12 0 0 0 0-2 19 19 0 0 0-1-1v1a3 3 0 0 0 0-3 3 3 0 0 1 0 1h-1a4 4 0 0 0 1 0 2 2 0 0 0 0-1V9h-1a4 4 0 0 1 0 1V9v1l-2 1" fill="url(#f)"/><path d="M7 6v1a37 37 0 0 0 1 3v1l2-1a3 3 0 0 0 0-2 14 14 0 0 0 0-2 13 13 0 0 0 0-1 7 7 0 0 0-1-1 29 29 0 0 1-2 2" fill="url(#g)"/><path d="M25 3a11 11 0 0 0-3 2l1 1a20 20 0 0 1 2-2 18 18 0 0 0-2 2 31 31 0 0 0 3 1 3 3 0 0 0 0-3s0-2-1-1" fill="url(#h)"/><path d="M22 12Zm-1 2h-1 1m-7 6 1-2a126 126 0 0 1 1-2 82 82 0 0 1 2-3l1-1v-1l-1 1v1l-1 1-1 1-1 2v1a76 76 0 0 0-1 2l-1 1 1-1" fill="none"/><path d="M20 14h1-1Z" fill="#be202e"/><path d="m20 10 1-1a36 36 0 0 1 2-3l-1-1-1 1-1 1-1 1-1 1 1 2 1-1" fill="url(#i)"/><path d="m13 21-1 2v1a2 2 0 0 1 1 1 2 2 0 0 0-1-1l4-1v-1a2 2 0 0 1-1 1 4 4 0 0 0 2-2 3 3 0 0 1-3 0h-1" fill="url(#j)"/><path d="m14 20 1-2v-1l1-2 1-1 1-1v-1l1-1-1-2-1 1-1 1-1 2a29 29 0 0 0-2 3v1l-1 2 1 2 1-1" fill="url(#k)"/><path d="M12 19a17 17 0 0 0 0 2 4 4 0 0 0-2-1 6 6 0 0 1 1 2 3 3 0 0 1-1 0 3 3 0 0 0 1 1 3 3 0 0 0-2 1 4 4 0 0 1 2-1l-3 7a1 1 0 0 0 1 0l3-7v-1l1-1-1-2" fill="url(#l)"/><path d="m19 12-1 1-1 1-1 2v1l-1 1-1 2-1 1h1a6 6 0 0 0 4-1 9 9 0 0 0 1-2 14 14 0 0 0 1-1l1-2a3 3 0 0 1-1 1 4 4 0 0 0 2-2 4 4 0 0 1-1 0h-1a4 4 0 0 0 1 0h1a3 3 0 0 0 0-1 10 10 0 0 0 1-1 3 3 0 0 0 0-1 4 4 0 0 1-1 1h1-4" fill="url(#m)"/><path d="m23 6-1 2-1 1-1 1-1 2h3a3 3 0 0 0 1-1l1-1a16 16 0 0 0 1-1 14 14 0 0 0 1-1 8 8 0 0 0 0-1 33 33 0 0 1-3-1" fill="url(#n)"/><path d="M20 14z" fill="#be202e"/><path d="M20 14z" fill="url(#o)"/></svg>