<svg xmlns="http://www.w3.org/2000/svg" viewBox="0 0 204.8 105.8"><path d="M0 96.3h6.7V69.7l10.5 23.2c1.2 2.8 3 3.8 6.2 3.8s5-1 6.2-3.8L40 69.7v26.6h6.8V69.7c0-2.6-1-3.8-3.2-4.5-5.1-1.6-8.6-.2-10.1 3.3l-10.3 23-9.9-23c-1.5-3.5-5-4.9-10.1-3.3C1 66 0 67.2 0 69.7v26.6zm52.4-21.7H59v14.7c0 .8.3 2.7 4 2.8h14.7V74.6h6.7v24c0 5.8-7.3 7-10.7 7.2H52.5v-4.6H74c4.3-.4 3.8-2.6 3.8-3.3V96H63.4c-6.7 0-11-3-11-6.3V74.6z" fill="#00618a"/><path d="M89.7 96.3h19.4a15 15 0 0 0 6.2-1.3c3-1.3 4.4-3.1 4.4-5.5v-5c0-1.9-1.6-3.7-4.8-5a18 18 0 0 0-5.8-.9H101c-2.7 0-4-.8-4.3-2.6v-4.3c.3-1.4 1-1.8 3.4-2h20v-4.5h-19c-2.7 0-4.1.2-5.4.5-4 1.3-5.8 3.3-5.8 6.8v3.9c0 3 3.4 5.6 9.2 6.2l2 .1h7.7c2 .2 3 .6 3.7 1.4.4.4.5.8.5 1.2v4c0 .4-.3 1-1 1.5-.6.5-1.6.9-2.9 1H89.7v4.5zm72-7.8c0 4.6 3.5 7.2 10.5 7.7a29.4 29.4 0 0 0 2 .1h17.5v-4.5H174c-4 0-5.5-1-5.5-3.3V65.2h-6.7v23.3zm-37.7.2v-16c0-4 2.9-6.5 8.5-7.3a13 13 0 0 1 1.8-.2h12.8a13.9 13.9 0 0 1 2 .2c5.6.8 8.4 3.2 8.4 7.3v16c0 3.3-1.2 5.1-4 6.3l6.7 6h-7.9l-5.3-5-5.5.4h-7.2a15 15 0 0 1-4-.6c-4.2-1.2-6.3-3.4-6.3-7.2zm7.3-.4.1.7c.4 1.9 2.2 3 4.8 3h6.1l-5.6-5.1h7.8l5 4.4a3.2 3.2 0 0 0 1.7-2.8v-16c-.5-1.7-2.2-2.7-4.8-2.7h-10.2c-3 0-5 1.3-5 3.3v15.3z" fill="#e48e00"/><g fill="#00618a"><path d="M197.6 57.7c-4.1 0-7.3.3-10 1.4-.8.4-2 .4-2.1 1.3.4.5.5 1.1.8 1.7a13 13 0 0 0 2.7 3.2l3.3 2.3c2 1.3 4.3 2 6.3 3.2l3.4 2.5c.5.4 1 1 1.6 1.3v-.1c-.3-.5-.4-1.2-.8-1.7l-1.5-1.5a25 25 0 0 0-5.4-5.2c-1.7-1.2-5.3-2.7-6-4.6v-.1c1-.1 2.4-.6 3.5-.8 1.8-.5 3.3-.4 5.2-.9l2.4-.7v-.4c-.9-1-1.5-2.3-2.5-3.1A75.8 75.8 0 0 0 190 49c-1.7-1-3.7-1.7-5.5-2.6-.6-.3-1.6-.4-2-1-.9-1-1.4-2.6-2-4-1.6-2.8-3-5.9-4.3-8.9-1-2-1.5-4-2.6-5.9a52 52 0 0 0-20-19.3c-2-1.1-4.3-1.6-6.7-2.1L143 5c-.8-.3-1.6-1.3-2.3-1.7-3-2-10.6-6-12.8-.6-1.4 3.3 2 6.6 3.3 8.3.9 1.2 2 2.6 2.6 4 .4.8.5 1.7.9 2.6.8 2.3 1.6 4.9 2.7 7 .5 1 1.1 2.2 1.8 3.2.5.6 1.2.8 1.3 1.7-.7 1-.7 2.6-1.1 4-1.9 5.7-1.2 13 1.5 17.3.8 1.3 2.8 4.1 5.4 3 2.4-1 1.8-3.9 2.5-6.4.2-.6 0-1 .4-1.5v.2l2 4.2a29 29 0 0 0 6.8 7c1.2.9 2.2 2.5 3.8 3h-.1c-.4-.6-.8-.8-1.2-1.2-1-.9-2-2-2.7-3-2.2-3-4-6.1-5.8-9.5l-2.3-5c-.2-.5-.2-1.5-.8-1.8-.7 1.2-1.9 2.1-2.5 3.5-.9 2.3-1 5-1.4 7.8l-.2.1c-1.6-.4-2.2-2-2.8-3.5a22.3 22.3 0 0 1-.5-13.8c.3-1 2-4.5 1.3-5.5-.3-1-1.3-1.6-1.9-2.4-.7-1-1.4-2.2-1.9-3.3-1.3-2.9-1.8-6-3.2-9-.6-1.3-1.7-2.7-2.6-4-1-1.3-2-2.3-2.8-4-.3-.5-.6-1.5-.2-2a1 1 0 0 1 .7-.8c.7-.5 2.6.2 3.3.5 1.9.8 3.4 1.5 5 2.6.8.5 1.6 1.5 2.5 1.7h1c1.7.4 3.6.2 5.2.6a46 46 0 0 1 23.6 21.2c.6 1.2.8 2.4 1.4 3.6 1 2.5 2.4 5.1 3.5 7.6 1 2.4 2.1 4.9 3.7 7 .8 1 3.9 1.6 5.3 2.2 1 .4 2.6.8 3.5 1.4 1.8 1 3.5 2.3 5.2 3.5.8.6 3.4 1.9 3.5 3z"/><path d="M145 12.8c-1 0-1.6 0-2.2.2v.2h.1c.4.8 1.1 1.3 1.7 2l1.1 2.6.2-.2c.7-.5 1-1.3 1-2.6-.3-.3-.3-.7-.6-1-.3-.5-1-.8-1.4-1.2z" fill-rule="evenodd"/></g><path d="M194.9 91.7c0 3 2.3 5 5 5s4.9-2 4.9-5-2.3-5-5-5-5 2-5 5zm8.8 0c0 2.3-1.7 4-3.9 4-2.1 0-3.8-1.7-3.8-4s1.7-4 3.8-4a4 4 0 0 1 3.9 4zm-2.5 2.8h1l-1.6-2.4c1-.1 1.6-.6 1.6-1.6 0-1.2-.7-1.6-2.1-1.6h-2.3v5.6h1v-2.4h.9l1.5 2.4zm-2.4-3.2v-1.6h1c.7 0 1.4 0 1.4.7 0 .8-.7.9-1.4.9h-1z" fill="#e48e00" fill-rule="evenodd"/></svg>