<svg xmlns="http://www.w3.org/2000/svg" version="1.1" viewBox="0 0 444 512"><description>Apache NetBeans Logo</description><g fill="none" fill-rule="evenodd" stroke-width="0"><path d="M222 0v99L86 178 0 128 222 0Z" fill="#A1C535"/><path d="m444 128-86 50-136-79V0l222 128Z" fill="#ADD439"/><path d="m444 384-86-50V178l86-50v256Z" fill="#1B6AC6"/><path d="M222 512v-99l136-79 86 50-222 128Z" fill="#2E90E8"/><path d="m0 384 86-50 136 79v99L0 384Z" fill="#EA205E"/><path d="m0 128 86 50v156L0 384V128Z" fill="#A5073E"/><path d="m86 178 136-79 136 79-136 78-136-78Z" fill="#F1F6E2"/><path d="m222 256 136-78v156l-136 79V256Z" fill="#CEDBE6"/><path d="m86 178 136 78v157L86 334V178Z" fill="#FFF"/></g></svg>