<svg xmlns="http://www.w3.org/2000/svg" data-name="Layer 1" viewBox="0 0 720.68 399.99"><defs><linearGradient id="a" x1="173.22" x2="173.22" y1="293.2" y2="93.2" gradientTransform="matrix(1 0 0 -1 0 393.2)" gradientUnits="userSpaceOnUse"><stop offset="0" stop-color="#ff683b"/><stop offset="1" stop-color="#f54811"/></linearGradient><linearGradient id="b" x1="303.54" x2="303.54" y1="129.59" y2="218.64" gradientTransform="matrix(1 0 0 -1 0 393.2)" gradientUnits="userSpaceOnUse"><stop offset="0" stop-color="#090b21"/><stop offset="1" stop-color="#2a2d42"/></linearGradient><linearGradient id="c" x1="376.5" x2="376.5" y1="129.59" y2="256.8" gradientTransform="matrix(1 0 0 -1 0 393.2)" gradientUnits="userSpaceOnUse"><stop offset="0" stop-color="#090b21"/><stop offset="1" stop-color="#2a2d42"/></linearGradient><linearGradient id="d" x1="433.61" x2="433.61" y1="129.59" y2="244.08" gradientTransform="matrix(1 0 0 -1 0 393.2)" gradientUnits="userSpaceOnUse"><stop offset="0" stop-color="#090b21"/><stop offset="1" stop-color="#2a2d42"/></linearGradient><linearGradient id="e" x1="500.22" x2="500.22" y1="129.59" y2="218.64" gradientTransform="matrix(1 0 0 -1 0 393.2)" gradientUnits="userSpaceOnUse"><stop offset="0" stop-color="#090b21"/><stop offset="1" stop-color="#2a2d42"/></linearGradient><linearGradient id="f" x1="576.36" x2="576.36" y1="129.59" y2="218.64" gradientTransform="matrix(1 0 0 -1 0 393.2)" gradientUnits="userSpaceOnUse"><stop offset="0" stop-color="#090b21"/><stop offset="1" stop-color="#2a2d42"/></linearGradient></defs><path d="m187.59 234.37-20.77-18.71-1.51-1.51.08.61-.1-.62-.55-3.93-6.2-44.86.3.3 20.76 18.71 1.52 1.5-.08-.6.08.61.54 3.93 6.2 44.9a4.1 4.1 0 0 0-.29-.3Zm47.56-119.72-53.18-14.2c-7.22-1.93-12.26 2.58-11.24 10l8.09 58.68-.32-.4-.08-.1-24.13-26.07-.13-.15c-2.2-2.69-5.81-2.42-9.48 1.29l-21.44 21.65c-5.26 5.31-10.45 15.72-11.52 23.14l-11.59 79.89c-1.07 7.41 3.95 15.05 11.15 16.99l53.18 14.2c7.22 1.93 12.26-2.58 11.24-10l-8.09-58.68.36.4.08.1 24.13 26.06c.05.06.1.1.13.15 2.2 2.69 5.81 2.42 9.48-1.3l21.44-21.64c5.26-5.31 10.45-15.72 11.52-23.14l11.6-79.9c1.06-7.4-3.96-15.04-11.16-16.97Z" fill="url(#a)" fill-rule="evenodd"/><path d="M338.21 260.42a3.81 3.81 0 0 1-3.64 3.18h-17.98a2.7 2.7 0 0 1-2.73-3.18l9.06-64.44c0-1.46-.42-2.56-1.25-3.29-.84-.73-1.1-.76-1.1-.76a70.68 70.68 0 0 0-6.34-.34h-9.5c-2.22 0-4.44.17-6.66.51l-2.22.33a4.88 4.88 0 0 0-3.4 3.86l-8.93 64.1a3.8 3.8 0 0 1-3.63 3.17h-18a2.7 2.7 0 0 1-2.72-3.19l11.45-82.68a3.8 3.8 0 0 1 3.63-3.17h15.65a3.2 3.2 0 0 1 3.18 3.22v5.9a20.16 20.16 0 0 1 10.84-7.26c4.45-1.26 12.99-1.7 12.99-1.7a150 150 0 0 1 6.36-.18h5.16c3.89 0 7.1.36 9.67 1.07 2.56.71 4.59 1.8 6.09 3.22a11.13 11.13 0 0 1 3.09 5.36c.55 2.15.67 4.45.67 4.45a40.3 40.3 0 0 1-.3 6.4l-9.41 65.36Z" fill="url(#b)" fill-rule="evenodd"/><path d="M396.53 154.49a4.05 4.05 0 0 1-3.95 3.28h-19.62c-1.92 0-3.26-1.48-3-3.28l2.14-14.81a4.06 4.06 0 0 1 3.95-3.28h19.62c1.9 0 3.26 1.48 2.99 3.28l-2.14 14.81ZM380.9 260.32a4.06 4.06 0 0 1-3.95 3.28h-19.62c-1.91 0-3.25-1.47-2.99-3.28l12.5-85.19a4.07 4.07 0 0 1 3.95-3.28h19.62c1.9 0 3.25 1.48 2.99 3.28l-12.5 85.19Z" fill="url(#c)" fill-rule="evenodd"/><path d="M467.16 187.75a3.84 3.84 0 0 1-3.68 3.22h-22.05a3.87 3.87 0 0 0-3.7 3.21l-6.49 44.49v2.3c0 .77.14 1.48.43 2.13.28.65.79 1.18 1.53 1.56l.74.38c1.42.11 4.03.2 5.82.2h15.42a2.76 2.76 0 0 1 2.8 3.22l-1.26 9.38a49.13 49.13 0 0 1-15.54 4.84c-5.04.62-9.08.93-12.14.93-3.4 0-6.51-.19-9.33-.58a18.23 18.23 0 0 1-7.3-2.48 12.52 12.52 0 0 1-4.72-5.63c-1.14-2.49-1.45-6.6-1.45-6.6-.13-1.79-.04-4.69.22-6.46l6.88-47.68a2.73 2.73 0 0 0-2.78-3.21h-8.97a2.76 2.76 0 0 1-2.79-3.22l1.31-9.39a3.85 3.85 0 0 1 3.7-3.21h8.96a3.86 3.86 0 0 0 3.7-3.21l2.47-17.22a4.42 4.42 0 0 1 3.68-3.57l18.34-2.02c1.77-.19 3.02 1.09 2.76 2.86l-2.82 19.94a2.75 2.75 0 0 0 2.78 3.22h22.05a2.75 2.75 0 0 1 2.8 3.21l-1.32 9.39Z" fill="url(#d)" fill-rule="evenodd"/><path d="M536.15 191.95c-.25 1.76-2.01 3.19-3.9 3.19h-8.6c-1.2 0-2.94.06-5.21.17a222.13 222.13 0 0 0-14.72 1.26l-2.42.28a5.32 5.32 0 0 0-3.8 3.97l-9.1 59.63c-.26 1.75-2.02 3.18-3.9 3.18h-19.36c-1.9 0-3.21-1.43-2.95-3.18l12.33-82.67c.26-1.75 2.02-3.2 3.9-3.2h16.67c1.86 0 3.39 1.46 3.39 3.23v7.07a64.64 64.64 0 0 1 12.39-7.08c4.79-2.14 10.59-3.21 17.42-3.21h7c1.88 0 3.2 1.43 2.95 3.19l-2.11 14.2Z" fill="url(#e)" fill-rule="evenodd"/><path d="M586.85 192.1h-13.04c-2.97 0-5.43.55-7.38 1.65a6.62 6.62 0 0 0-2.69 3.16 40.46 40.46 0 0 0-1.57 6.22l-5.69 36.98c0 1.8.8 3.25 2.4 4.35a8.83 8.83 0 0 0 3.62 1.3c1.79.19 4.73.35 6.52.35h9.59c2.97 0 5.46-.58 7.47-1.73a6.29 6.29 0 0 0 2.65-3.07 44.6 44.6 0 0 0 1.53-6.24l5.68-36.67c0-4.19-3.03-6.27-9.1-6.27Zm28.3 43.76c-.8 5.37-2.31 9.87-4.55 13.46a25.96 25.96 0 0 1-8.41 8.55 34.28 34.28 0 0 1-11.75 4.44c-4.46.86-11.14 1.15-11.14 1.15-1.8.08-4.74.14-6.54.14h-9.6c-5.15 0-9.66-.38-13.56-1.13a26.04 26.04 0 0 1-9.86-3.87c-2.7-1.83-4.7-4.3-6-7.42-1.33-3.12-1.75-8.73-1.75-8.73-.13-1.77-.03-4.64.23-6.39l5.2-35.69c.7-4.74 2.23-8.74 4.63-12.02a29.1 29.1 0 0 1 8.84-7.99 39.35 39.35 0 0 1 11.58-4.44c4.23-.91 9.77-1.2 9.77-1.2 1.8-.1 4.74-.17 6.54-.17h11.5c4.45 0 8.57.4 12.34 1.21 3.78.81 7.01 2.13 9.7 3.95a19.49 19.49 0 0 1 6.35 7.22c1.55 2.95 2.01 7.83 2.01 7.83.17 1.77.1 4.64-.19 6.4l-5.34 34.72Z" fill="url(#f)" fill-rule="evenodd"/></svg>