<svg xmlns="http://www.w3.org/2000/svg" fill="none" viewBox="0 0 267 80"><mask id="a" width="267" height="80" x="0" y="0" maskUnits="userSpaceOnUse" style="mask-type:luminance"><path d="M267 0H0v79.4h267z" fill="#fff"/></mask><g mask="url(#a)"><path d="M235 78.8a4 4 0 0 1-2-.6l-6-3.6c-1-.5-.5-.7-.3-.8 1.3-.4 1.5-.5 2.8-1.3h.5l4.7 3h.5l18.4-10.8c.2 0 .3-.3.3-.5V43c0-.3-.1-.5-.3-.5l-18.4-10.7h-.5l-18.4 10.7c-.2 0-.3.3-.3.5v21.3c0 .2.1.4.3.5l5 3c2.7 1.3 4.4-.3 4.4-2v-21c0-.3.3-.5.6-.5h2.3c.3 0 .6.2.6.5v21c0 3.7-2 5.9-5.4 5.9-1.1 0-2 0-4.3-1.2l-4.8-2.8a4 4 0 0 1-2-3.3V42.9a4 4 0 0 1 2-3.4L233 28.8a4 4 0 0 1 4 0l18.3 10.7a4 4 0 0 1 2 3.4v21.4a4 4 0 0 1-2 3.3l-18.4 10.7a4 4 0 0 1-2 .5" fill="#5FA04E"/><path d="M240.7 64c-8 0-9.7-3.6-9.7-6.8 0-.3.2-.5.5-.5h2.4c.3 0 .5.2.5.4.4 2.5 1.5 3.7 6.3 3.7 4 0 5.6-.9 5.6-3 0-1.2-.5-2-6.5-2.7-5-.5-8.2-1.6-8.2-5.6 0-3.8 3.2-6 8.4-6 5.9 0 8.8 2 9.2 6.5a.8.8 0 0 1-.2.4l-.4.2h-2.4a.5.5 0 0 1-.5-.4c-.5-2.6-2-3.4-5.7-3.4-4.3 0-4.8 1.5-4.8 2.6 0 1.3.6 1.8 6.3 2.5s8.3 1.8 8.3 5.8-3.3 6.4-9.1 6.4m26.5-22.4c0 2-1.6 3.5-3.5 3.5a3.6 3.6 0 0 1-3.6-3.5 3.6 3.6 0 0 1 3.6-3.6c1.8 0 3.5 1.6 3.5 3.6m-6.5 0a3 3 0 0 0 3 3 3 3 0 0 0 3-3 3 3 0 0 0-3-3 3 3 0 0 0-3 3m1.6-2h1.4c.5 0 1.4 0 1.4 1 0 .8-.5 1-.8 1 .6 0 .6.4.7 1 0 .3 0 .8.2 1h-.9v-1.3c-.1-.2-.2-.3-.5-.3h-.7v1.6h-.8zm.8 1.7h.6c.5 0 .6-.3.6-.5 0-.6-.4-.6-.6-.6h-.7v1.1z" fill="#5FA04E"/><path d="M43.7 42c0-.9-.5-1.7-1.2-2L23 28.5l-1-.4h-.2c-.4 0-.8.2-1 .4L1.1 39.9a2.4 2.4 0 0 0-1.2 2v30.4c0 .4.3.9.6 1 .4.3.9.3 1.2 0l11.6-6.6a2.4 2.4 0 0 0 1.2-2V50.3c0-.8.4-1.6 1.2-2l5-2.9a2.2 2.2 0 0 1 1.1-.3c.4 0 .8 0 1.2.3l4.9 2.9a2.4 2.4 0 0 1 1.2 2v14.2c0 .9.4 1.7 1.2 2l11.5 6.8c.3.2.8.2 1.2 0 .3-.2.6-.7.6-1zm93.8-42h-1.2c-.4.3-.6.6-.6 1v30.2a.9.9 0 0 1-.4.7.9.9 0 0 1-.8 0l-5-2.8a2.4 2.4 0 0 0-2.3 0l-19.5 11.3a2.4 2.4 0 0 0-1.2 2v22.7c0 .8.5 1.6 1.2 2l19.5 11.4a2.4 2.4 0 0 0 2.4 0L149 67.2a2.4 2.4 0 0 0 1.2-2V8.8c0-1-.5-1.7-1.2-2.1zm-1.8 57.6c0 .3-.1.5-.3.6l-6.7 3.8a.7.7 0 0 1-.6 0l-6.7-3.8-.2-.6V50c0-.3 0-.5.2-.5l6.7-4a.7.7 0 0 1 .6 0l6.7 4c.2 0 .3.3.3.5zm66.7-8c.7-.3 1.1-1.1 1.1-2v-5.5c0-.8-.4-1.6-1.1-2L183 28.9a2.4 2.4 0 0 0-2.3 0l-19.5 11.3a2.4 2.4 0 0 0-1.2 2V65a2 2 0 0 0 1.2 2l19.3 11.2c.8.4 1.6.4 2.3 0l11.8-6.6c.3-.2.6-.6.6-1s-.3-.9-.6-1L175 58a1 1 0 0 1-.6-1v-7c0-.5.2-1 .6-1.1l6-3.5a1.1 1.1 0 0 1 1.3 0l6.1 3.5c.4.2.6.6.6 1v5.6c0 .4.2.8.6 1 .4.2.8.2 1.2 0z" fill="#333" fill-rule="evenodd" clip-rule="evenodd"/><path d="M181.6 48.7a.4.4 0 0 1 .4 0l3.7 2.2c.2 0 .3.2.3.4v4.4a.5.5 0 0 1-.3.4l-3.7 2.2a.4.4 0 0 1-.4 0l-3.8-2.2a.5.5 0 0 1-.2-.4v-4.4c0-.2 0-.3.2-.4z" fill="#5FA04E" fill-rule="evenodd" clip-rule="evenodd"/><path d="M22.9.4a2.4 2.4 0 0 0-2.4 0L1.2 11.7c-.8.4-1.2 1.2-1.2 2v22.6c0 .8.5 1.6 1.1 2l19.4 11.2a2.4 2.4 0 0 0 2.4 0l19.3-11.2c.8-.4 1.2-1.2 1.2-2V13.7c0-.8-.5-1.6-1.2-2z" fill="url(#b)" transform="translate(53.4 28.6)"/><path d="m21.7-1 21.5 13-21.5 39L.2 38z" fill="url(#c)" clip-path="url(#d)" transform="translate(53.4 28.6)"/><path d="M21.7-1 .2 12l21.5 39 21.5-13z" fill="url(#e)" clip-path="url(#d)" transform="translate(53.4 28.6)"/></g><defs><linearGradient id="b" x1="30.3" x2="14.9" y1="8.6" y2="44.7" gradientUnits="userSpaceOnUse"><stop stop-color="#3F8B3D"/><stop offset=".6" stop-color="#3F873F"/><stop offset=".9" stop-color="#3DA92E"/><stop offset="1" stop-color="#3DAE2B"/></linearGradient><linearGradient id="c" x1="18.8" x2="68" y1="26.8" y2=".4" gradientUnits="userSpaceOnUse"><stop offset=".1" stop-color="#3F873F"/><stop offset=".4" stop-color="#52A044"/><stop offset=".7" stop-color="#64B749"/><stop offset=".9" stop-color="#6ABF4B"/></linearGradient><linearGradient id="e" x1=".3" x2="44" y1="24.5" y2="24.5" gradientUnits="userSpaceOnUse"><stop offset=".1" stop-color="#6ABF4B"/><stop offset=".3" stop-color="#64B749"/><stop offset=".6" stop-color="#52A044"/><stop offset=".9" stop-color="#3F873F"/></linearGradient><clipPath id="d"><path d="M22.9.4a2.4 2.4 0 0 0-2.4 0L1.2 11.7c-.8.4-1.2 1.2-1.2 2v22.6c0 .8.5 1.6 1.1 2l19.4 11.2a2.4 2.4 0 0 0 2.4 0l19.3-11.2c.8-.4 1.2-1.2 1.2-2V13.7c0-.8-.5-1.6-1.2-2z"/></clipPath></defs></svg>