<svg xmlns="http://www.w3.org/2000/svg" viewBox="0 0 711 384"><defs><clipPath id="a"><path d="M12 162C12 82 135 17 288 17s276 65 276 145-123 145-276 145S12 242 12 162"/></clipPath><clipPath id="c"><path d="M0 324h576V0H0v324z"/></clipPath><clipPath id="d"><path d="M0 324h576V0H0v324z"/></clipPath><radialGradient id="b" cx="0" cy="0" r="1" fx="0" fy="0" gradientTransform="matrix(363.05789 0 0 -363.05789 178 256)" gradientUnits="userSpaceOnUse" spreadMethod="pad"><stop offset="0" stop-color="#aeb2d5"/><stop offset="0" stop-color="#aeb2d5"/><stop offset="1" stop-color="#484c89"/></radialGradient></defs><g clip-path="url(#a)" transform="matrix(1.25 0 0 -1.25 -4 394)"><path d="M12 162C12 82 135 17 288 17s276 65 276 145-123 145-276 145S12 242 12 162" fill="url(#b)"/></g><g clip-path="url(#c)" transform="matrix(1.25 0 0 -1.25 -4 394)"><path d="M288 27c147 0 266 61 266 135S435 297 288 297 22 236 22 162 141 27 288 27" fill="#777bb3"/></g><g clip-path="url(#d)" transform="matrix(1.25 0 0 -1.25 -4 394)"><path d="M162 145c12 0 21 3 27 7 5 4 9 12 11 22s1 17-2 21c-3 3-11 5-22 5h-19l-11-55h16zM99 78l-3 1a3 3 0 0 0 0 2l28 146a3 3 0 0 0 3 2h61c19 0 34-5 43-15 9-11 11-25 8-43a69 69 0 0 0-21-37c-7-7-14-11-22-14-8-2-19-4-31-4h-25l-7-36a3 3 0 0 0-3-2H99z"/><path d="M159 197h17c13 0 18-3 20-4 2-3 3-9 1-18-2-10-5-17-10-21s-14-6-25-6h-12l9 49zm29 35h-61a6 6 0 0 1-6-5L93 82a6 6 0 0 1 6-7h31a6 6 0 0 1 6 4l7 34h22c13 0 23 2 32 4a71 71 0 0 1 45 53c3 19 0 35-9 46-10 11-25 16-45 16m-46-90h20c13 0 22 3 28 8s11 12 13 24c2 11 1 18-3 23-4 4-12 6-24 6h-22l-12-61m46 84c18 0 32-5 40-14s11-23 8-41a65 65 0 0 0-20-35c-6-6-13-10-21-13-8-2-18-4-30-4h-27l-8-38H99l28 145h61" fill="#fff"/><path d="M312 116a3 3 0 0 0-3 4l12 64c1 7 1 11-1 13-1 1-4 3-13 3h-23l-16-81a3 3 0 0 0-3-3h-31a3 3 0 0 0-3 4l28 146a3 3 0 0 0 3 2h32a3 3 0 0 0 3-4l-7-35h24c19 0 31-3 39-10 7-7 10-18 7-32l-13-68a3 3 0 0 0-3-3h-32z"/><path d="M294 271h-32a6 6 0 0 1-6-5l-28-146a6 6 0 0 1 6-7h31a6 6 0 0 1 6 5l16 79h20c9 0 11-2 11-2v-10l-12-65a6 6 0 0 1 6-7h32a6 6 0 0 1 5 5l14 68c3 16 0 28-8 35-8 8-21 11-41 11h-21l7 32a6 6 0 0 1-6 7m0-6-8-39h28c18 0 30-3 37-9s8-16 6-30l-13-68h-32l12 65c2 7 1 12-1 15s-8 4-16 4h-25l-17-84h-31l28 146h32" fill="#fff"/><path d="M410 145c12 0 21 3 26 7 6 4 10 12 12 22s1 17-2 21c-4 3-11 5-22 5h-19l-11-55h16zm-64-67-2 1a3 3 0 0 0 0 2l28 146a3 3 0 0 0 3 2h61c19 0 33-5 42-15 9-11 12-25 9-43a69 69 0 0 0-21-37c-7-7-14-11-22-14-8-2-19-4-31-4h-25l-7-36a3 3 0 0 0-3-2h-32z"/><path d="M407 197h17c13 0 18-3 20-4 2-3 3-9 1-18-2-10-5-17-11-21-5-4-13-6-24-6h-12l9 49zm29 35h-61a6 6 0 0 1-6-5L341 82a6 6 0 0 1 5-7h32a6 6 0 0 1 6 4l7 34h22c13 0 23 2 31 4 9 3 17 8 24 14a71 71 0 0 1 22 39c3 19 0 35-9 46-10 11-25 16-45 16m-46-90h20c12 0 22 3 28 8s11 12 13 24c2 11 1 18-3 23s-12 6-24 6h-22l-12-61m46 84c18 0 32-5 40-14s11-23 8-41a65 65 0 0 0-20-35c-7-6-14-10-21-13-8-2-18-4-30-4h-27l-8-38h-32l29 145h61" fill="#fff"/></g></svg>