<svg xmlns="http://www.w3.org/2000/svg" viewBox="0 0 107 94"><path d="M11.2 79H6.5v-4.4h5c1.8 0 2.7.8 2.7 2.2 0 1.4-1 2.1-3 2.1m3.4-4.3c-.7-.5-1.6-.8-2.7-.8H5.2v10.3h1.3v-4.4h5c1.2 0 2.2-.2 3-.8s1-1.2 1-2.1-.3-1.7-1-2.2zm8.7 7.3a2 2 0 0 1-.7.9c-.6.5-1.5.8-2.7.8-1.1 0-2-.3-2.6-.8s-.9-1.2-.9-2.1c0-.5 0-.9.2-1.2a2.4 2.4 0 0 1 .7-.9 4 4 0 0 1 2.6-.8c2.4 0 3.6 1 3.6 2.9 0 .5 0 .9-.2 1.2m.2-3.8a6 6 0 0 0-3.6-1c-1.5 0-2.7.4-3.5 1-.8.7-1.2 1.5-1.2 2.6s.4 2 1.2 2.6a4 4 0 0 0 1.5.7 6 6 0 0 0 2 .3 6 6 0 0 0 3.6-1c.8-.7 1.2-1.5 1.2-2.6s-.4-2-1.2-2.6zm10.2 4c0 1.5-1.3 2.1-4 2.1h-2.1c-.5 0-1-.3-1.4-.6-.3-.1-.5-.4-.7-.6a2.8 2.8 0 0 1-.3-1h1.3c0 .5.2.9.6 1.1.5.3 1.3.5 2.6.5 1.8 0 2.8-.4 2.8-1.3 0-.5-.3-.8-1-1l-2.3-.3-2.6-.5c-.7-.2-1.1-.7-1.1-1.4s.3-1.2 1-1.5l1.2-.4a9 9 0 0 1 1.8 0c2.6 0 3.9.7 3.9 2.1h-1.2c0-1-1-1.5-2.8-1.5-1 0-1.6 0-2 .3s-.8.5-.8 1c0 .4.3.7 1 .9l2.5.3c1.1 0 2 .2 2.4.4.8.3 1.2.8 1.2 1.5zm5 2h-.9c-.8 0-1.4 0-1.7-.3s-.6-.6-.6-1.1V78H34v-.7h1.5v-2.2h1.2v2.2h2v.7h-2v4.6c0 .3 0 .5.3.7s.5.1 1 .1h.6v.7zm8-1.6a3.5 3.5 0 0 1-1.2.5c-.4.2-.8.2-1.4.2-2.4 0-3.6-.9-3.6-2.7 0-.8.4-1.5 1-2s1.4-.6 2.6-.6c1 0 2 .2 2.5.7s.9 1 .9 1.9c0 .9-.3 1.5-.9 2m2-5.1h-1.1v1.1l-1-.9c-.7-.3-1.6-.5-2.6-.5-1.5 0-2.6.3-3.4 1a3 3 0 0 0-1.1 2.4c0 .6 0 1 .2 1.5a2.9 2.9 0 0 0 .9 1c.8.6 1.9 1 3.3 1 1.7 0 3-.5 3.7-1.4v1.2c0 .8-.3 1.4-.8 1.8s-1.4.6-2.6.6a5 5 0 0 1-2.4-.4c-.4-.2-.6-.6-.8-1.1h-1.2c.2.7.5 1.3 1 1.6a7 7 0 0 0 3.4.6c3 0 4.5-1 4.5-3v-6.6zm6.3.6a6.6 6.6 0 0 0-1 0c-1.9 0-2.8.9-2.8 2.8V84h-1.2v-6.6h1.2v1.2a2.1 2.1 0 0 1 1-1.1c.4-.2 1-.4 2-.4h.8v1zm1 2.3c.2-.8.5-1.4 1-1.8L58 78l1.4-.2c1 0 1.9.2 2.5.7s1 1.1 1 1.8h-7m7.1-2c-.4-.5-.9-.7-1.5-1s-1.3-.2-2-.2c-1.6 0-2.7.3-3.5 1s-1.3 1.5-1.3 2.5.4 2 1.2 2.6c.9.7 2 1 3.6 1a6.9 6.9 0 0 0 3.1-.7A3 3 0 0 0 64 82h-1.2c-.4 1-1.5 1.7-3.2 1.7a4 4 0 0 1-2.8-.9c-.5-.5-.8-1-.8-1.8h8.2c0-1.2-.3-2-1-2.7z" fill="#231f20"/><path d="M76.3 81.3c0 2-1.8 3-5.3 3-2.2 0-3.7-.4-4.7-1a3 3 0 0 1-1.2-2.6h1.5c0 1.8 1.4 2.8 4.4 2.8 1.4 0 2.4-.2 3-.6.5-.3.8-.9.8-1.6 0-.7-.3-1.2-1-1.5l-3-.5a17 17 0 0 1-4-.9 2.1 2.1 0 0 1-1.3-2c0-1 .4-1.7 1.1-2 .8-.6 2.2-.8 4-.8 3.5 0 5.3 1 5.3 3.1h-1.5c0-1.6-1.3-2.3-3.8-2.3-1.3 0-2.2.1-2.8.4-.6.4-.9.9-.9 1.5 0 .7.4 1.2 1 1.4l3.5.7c1.8.3 3 .5 3.6.9.8.4 1.2 1 1.2 2zm11.5 1a5.8 5.8 0 0 1-1.8.9 8 8 0 0 1-2.2.3c-1.7 0-3.1-.4-4.1-1.3S78 80.3 78 79s.5-2.5 1.6-3.3 2.4-1.2 4-1.2c1.8 0 3.2.4 4.1 1.2a4 4 0 0 1 1.2 1.5c.3.5.4 1.1.4 1.8a4 4 0 0 1-1.6 3.4m.8.7c.7-.5 1.3-1 1.6-1.7s.5-1.5.5-2.4c0-1.5-.5-2.8-1.7-3.8-.6-.5-1.4-.9-2.2-1.1s-2-.4-3-.4c-2.2 0-4 .5-5.2 1.4s-1.9 2.3-1.9 4a4.7 4.7 0 0 0 2 3.8c1.2 1 2.9 1.5 5 1.5A13.8 13.8 0 0 0 86 84c.6 0 1.2-.2 1.6-.4l2.1 1.3.9-.8-2-1.2zm12.8 1h-9.7V73.8H93v9.4h8.4v.8z" fill="#367faf"/><path d="M67.5 49.7c.4-3.2.3-3.7 2.7-3.2h.6c1.8.2 4.2-.2 5.6-.9 3-1.4 4.8-3.7 1.8-3-6.8 1.3-7.2-1-7.2-1 7-10.6 10-24.1 7.6-27.4-7-9-19.3-4.8-19.5-4.7-1.4-.2-3-.4-4.6-.4-3 0-5.4.8-7.2 2.1 0 0-21.8-9-20.7 11.3.2 4.3 6.1 32.6 13.2 24 2.6-3 5.2-5.7 5.2-5.7 1.2.8 2.7 1.2 4.3 1l.1 1.2c-1.8 2-1.3 2.4-5 3.2-3.6.7-1.5 2 0 2.4 1.7.5 5.7 1 8.4-2.7l-.1.4c.7.6.6 4.2.7 6.7s.3 5 .8 6.3 1.2 5 6 4c4-.9 7-2.1 7.4-13.6" fill="#231f20" stroke="#231f20" stroke-width="5"/><path d="M78.2 42.5c-6.8 1.4-7.2-.9-7.2-.9 7-10.6 10-24.1 7.6-27.4-7-9-19.3-4.8-19.5-4.7-1.4-.2-3-.4-4.6-.4-3 0-5.4.8-7.2 2.1 0 0-21.8-9-20.7 11.3.2 4.3 6.1 32.6 13.2 24l5.1-5.7c1.3.8 2.8 1.2 4.3 1h.2V43c-1.8 2-1.3 2.4-5 3.2-3.6.7-1.5 2 0 2.4 1.7.5 5.7 1 8.4-2.7l-.2.4c.8.6 1.3 3.8 1.2 6.7s-.2 4.8.4 6.3 1.1 5 6 4c4-.9 6-3.1 6.4-6.8.2-2.7.6-2.3.7-4.7l.3-1c.5-3.7 0-4.8 2.6-4.3h.6c1.8.2 4.2-.2 5.6-.9 3-1.4 4.8-3.7 1.8-3z" fill="#417ba2"/><g fill="none" stroke="#fff" stroke-width="1.7"><g stroke-linecap="round"><path d="M53 44.6c-.1 6.6.1 13.4.8 15s2 4.8 6.8 3.8c4-.9 5.5-2.5 6.2-6.2l1.4-11.8M47.3 11.1S25.5 2 26.5 22.4c.2 4.3 6.2 32.6 13.3 24l5-5.5M59 9.4c-.8.3 12-4.7 19.4 4.7 2.6 3.3-.4 16.8-7.6 27.4" stroke-linejoin="round"/><path d="M71 41.5s.4 2.3 7.2 1c3-.7 1.2 1.6-1.8 3-2.5 1.2-8 1.5-8.2-.1-.2-4 3-2.9 2.7-3.9-.2-1-1.6-1.8-2.5-4-.8-2-11.2-17.2 2.9-15 .5 0-3.7-13.3-16.9-13.5S41.7 25 41.7 25" stroke-linejoin="bevel"/></g><g stroke-linejoin="round"><path d="M49.4 43c-1.8 2-1.3 2.3-5 3-3.7.8-1.5 2.2 0 2.6 1.6.4 5.6 1 8.3-2.8.8-1.1 0-3-1.1-3.4-.6-.2-1.3-.5-2.2.5z"/><path d="M49.3 42.9c-.2-1.2.4-2.6 1-4.3 1-2.5 3-5 1.3-13-1.2-6-9.9-1.3-9.9-.5s.4 4.1-.1 8c-.7 5 3.2 9.1 7.6 8.7" stroke-linecap="round"/></g></g><g fill="#fff" stroke="#fff"><path d="M47.2 25c0 .3.5 1 1.2 1.1s1.3-.4 1.4-.7-.5-.6-1.2-.7-1.3 0-1.4.3z" stroke-width=".6"/><path d="M68.7 24.5c0 .2-.5 1-1.2 1s-1.3-.4-1.3-.7.5-.6 1.2-.7 1.3 0 1.3.4z" stroke-width=".3"/></g><path d="M71.3 22.6c0 2.1-.5 3.6-.6 5.9 0 3.3 1.6 7.1-1 11" fill="none" stroke="#fff" stroke-linecap="round" stroke-linejoin="round" stroke-width="1.7"/></svg>