<svg xmlns="http://www.w3.org/2000/svg" xmlns:xlink="http://www.w3.org/1999/xlink" viewBox="0 0 10000 3344"><path d="m9877 1268-2-1a350 350 0 00-211-73h-2c-85 0-146 33-178 50l-59 25a400 400 0 00-84 51c-18 14-37 40-60 46-40 10-23-43-31-74-16-58-57-102-83-154-29-57-32-123-58-182l-5-14c-10-29-24-72-50-118l-7-14a473 473 0 00-58-99l-2-3a320 320 0 00-253-122 326 326 0 00-65 6 324 324 0 00-123 54 328 328 0 00-50 45c-17 18-23 43-50 49-27 5-59-15-86-16h-10a373 373 0 00-320 189c-10 16-25 72-46 72-15 0-33-13-48-17-45-11-90-16-136-23-50-7-98 0-144-20-50-20-96-37-152-37a319 319 0 00-28 1C7370 900 7302 950 7230 1021c-16 16-47 0-67-4a440 440 0 00-77-7h-3a350 350 0 00-123 25c-22 7-44 17-68 22-42 10-32-7-37-46-10-89-43-177-37-267 6-92 62-175 93-260a375 375 0 00-24-311A335 335 0 00 6634 2a355 355 0 00-36-2c-28 0-55 4-82 10a350 350 0 00-161 98c-46 46-70 107-113 155-15 17-54 98-76 99-28 0-86-60-112-75a310 310 0 00-149-41h-12a321 321 0 00-170 55 433 433 0 00-112 117l-7 10c-26 35-45 70-66 107-16 28-52 30-80 43a326 326 0 00-95 74l-4 4a538 538 0 00-98 179c-29 82-29 170-50 253-6 24-5 60-20 80-20 25-30 8-51-12-40-39-76-83-130-104a344 344 0 00-124-23 352 352 0 00-234 89c-32 28-50 64-76 95-14 15-28 10-45 10-46 0-92 8-134 27-25 11-54 35-83 20-24-14-40-52-60-72a332 332 0 00-234-95 280 280 0 00-107 26c-16 5-56 30-73 22-22-10-19-46-22-66-6-47-32-91-63-126A333 333 0 00 3500 844c-47 0-95 10-143 26-35 13-77 63-106 23-19-27-25-68-40-97a280 280 0 00-66-86 350 350 0 00-224-83c-92 0-211 30-287 83a339 339 0 00-140 254c-2 23 6 51-2 74-13 37-43 18-77 18a484 484 0 00-213 50c-74 35-45-79-50-123-16-157-154-344-317-373-20-3-40-5-58-12-43-18-79-86-117-116-63-47-148-98-220-130-57-26-122-26-180-50-55-23-103-60-159-80-53-20-110-28-172-28a720 720 0 00-39 0 428 428 0 00-257 93c-70 54-158 35-240 69C280 403 139 455 67 560A400 400 0 00 2 829c8 73 41 143 50 218 8 78 12 160 50 230 15 30 36 58 48 90 12 34 11 72 13 108 3 86 17 171 42 253 23 80 63 153 68 237 3 64-5 130 2 194 6 50 22 97 28 147 7 64-3 130 13 192 14 52 45 98 63 150 18 48 23 100 34 150a820 820 0 00 126 310 380 380 0 00 120 104c50 27 105 40 161 40a335 335 0 00 241-100c41-42 71-94 87-150 10-37 6-77 20-112 42-106 71-198 30-310-15-42 37-12 52-5 45 21 83 44 121 75 57 46 96 100 147 150 46 46 72 110 108 164a1660 1660 0 00 87 120c28 37 60 58 94 88 24 21 43 48 67 70a340 340 0 00 224 85 330 330 0 00 265-132 343 343 0 00 60-285c-2-50-13-94-25-129-8-37-22-73-38-108-8-17-24-39-28-57-6-26 12-24 32-33 20-10 63-57 84-56 12 0 27 28 35 38 25 29 53 67 85 89a326 326 0 00 182 55c47 0 88-20 128-43 36-20 120-90 124-7a350 350 0 00 100 234 334 334 0 00 236 96c122 0 253-87 328-180 36-45 60-98 70-154 5-35-10-75 0-108 10-34 49-20 75-20a330 330 0 00 112-20c28-10 48-30 80-25 41 8 77 26 123 26 50 0 101-12 147-34 25-12 44-37 70-46 31-10 62 8 94 10a314 314 0 00 53 0l5 3 12 4c30 14 60 27 93 33 49 9 82 20 126 40a330 330 0 00 287-2c53-28 46 10 45 48-1 76 4 132 19 182a340 340 0 00 325 252c43 0 86-9 126-26a346 346 0 00 173-170l3-4c10-20 37-70 45-137l5-23v-2l7-24c10-39 28-74 36-114 3-17-8-116 28-100 21 10 39 40 57 56a350 350 0 00 296 71c13-3 27-6 40 0 9 4 15 13 20 22 24 40 30 83 47 126 14 35 43 63 58 98 14 33 17 70 34 102 95 177 378 253 543 136 92-65 144-170 139-283a342 342 0 00-13-80l-4-20c-6-36-40-122 6-136a280 280 0 01 60-12c33 0 64-5 95-13 15-4 45-23 60-20 30 3 65 50 94 65a348 348 0 00 156 37c20 0 61-14 78-6 30 15 31 52 48 77 18 26 53 37 68 66 20 40-27 62-48 91a386 386 0 00-75 305v3a337 337 0 00 330 260c16 0 32 0 48-3h2c76-11 141-50 200-98 68-55 132-73 210-103a640 640 0 00 227-169l37-41 12-13c37-42 82-68 114-116 45-70 89-139 139-206a630 630 0 01 60-74c54-54 126-86 176-142 15-17 28-36 44-50 14-14 30-24 46-35 60-38 122-74 175-122 50-45 81-94 140-130a2187 2187 0 00 350-279c34-32 60-68 78-109v-1c60-135 20-294-95-384" fill="#070709"/><path d="m8727 1880-15 42-17 48c-4 14-7 29-8 43 0 10 4 20 4 30 0 16-5 17-18 22l-19 7-26 8c-50 13-110 30-130 87a90 90 0 00-4 26c0 15 0 20-14 30a321 321 0 00-110 119 105 105 0 00-6 56c1 9 3 16 6 24 5 10 11 17 3 28-7 8-17 13-25 20l-36 32a580 580 0 00-47 40 190 190 0 00-20 27c-5 8-6 16-15 22l-8 5 5-23c2-13 9-31 14-47l12-35 4-13c6-20 14-46 14-82 0-20 3-40 6-64 3-25 6-57 8-94a90 90 0 01 6-36c5-10 13-19 17-30a244 244 0 00 11-128c-5-31 12-56 16-87 2-10-4-22 2-30 9-10 24-1 35-1h14a259 259 0 00 28 2c14 0 32-7 44 1 10 7 20 14 33 20 27 10 56 17 82 17 39 0 62-15 76-28v-1c8-7 15-16 20-25 4-10 4-20 12-28 7-6 13-13 18-20 4-8 5-18 14-21 7-2 20 0 22 8 3 10-5 20-8 30m-695 133c2 25 18 46 20 70 1 13-7 28-10 42a190 190 0 00 1 75l12 36c3 10 0 20 1 30a285 285 0 01 0 37c-1 26-7 50-13 75l-11 36-2-18v-7c-3-30-17-57-30-83-8-16-18-38-20-47l2-43c2-36 4-75 0-107-4-26-12-50-24-74-7-16-17-30-26-44-8-11-20-24-18-39 3-32 3-61-10-91a250 250 0 00-40-60l-6-8-18-18c-8-10-3-18 6-24 10-8 20-15 30-20l1 20c6 33 30 61 63 76 14 7 30 10 45 12 18 1 37 5 53 13 27 14 20 25 16 51-2 16-3 26-10 40a141 141 0 00-12 70m-610-228c-5 12-13 26-20 45-2 9-4 9-8 0a270 270 0 00-25-40l-2-4-1-1-14-20c-6-10-20-16-23-27-2-11 14-28 19-39l10-22 1-3 6-10 3 12a138 138 0 00 38 80l15 10c8 8 6 10 2 20M7040 1760c-9 19-21 46-21 81 0 14-9 3-16-1-10-6-23-10-33-17-10-6-8-22-8-33 0-9-3-24 0-32 4-7 9-12 20-23l27-21 5 4 6 5 18 15 7 10-5 12m2690-306h-2a94 94 0 00-52-22l-13-1c-26 0-46 10-68 22h-1l-7 5-51 21h-2l-18 8a230 230 0 00-80 59L9420 1560a206 206 0 01-60 35c-25 12-41 27-55 38l-17 14-15 3a330 330 0 00-96 38c-10 6-20 9-40 13-10 2-19 7-28 7-10 0-10-7-14-15l-12-18-11-15c-7-10-10-11-10-23-2-10-6-22-11-32-6-11-17-20-19-34l2-38 2-46c0-34-5-100-15-133-9-34-32-55-50-70l-8-8-3-10-14-41-16-38-10-26c-3-24-10-70-28-110l-13-35c-8-24-17-50-30-76l-16-30c-9-20-17-38-30-53l-2-3a85 85 0 00-67-32l-17 1c-32 7-57 30-65 62l-1 4-4 18c-3 20 0 38 5 62 0 8 3 17 3 23 3 24 3 52 0 76-1 10-6 15-12 21l-13 20a240 240 0 00-12 100c0 35 8 62 14 81l4 15c0 30 0 130 4 183 2 43 18 80 30 110a196 196 0 01 22 93v48l-20-15a227 227 0 00-92-36c-14-2-19-12-30-20l-29-14c-22-9-46-14-70-13h-10c-10-3-21-17-32-22-17-8-36-10-54-10h-3l11-36 9-33c10-33 19-67 20-101 0-9 3-17 10-32 8-19 20-44 21-77a150 150 0 00-9-70c-3-10-8-18-14-26-13-18-2-26 8-43 12-18 22-37 31-57 24-50 25-92 4-127-10-17-36-46-90-47h-2c-36 0-70 16-96 42a167 167 0 00-30 46c-7 13-10 28-18 40-8 13-16 25-20 40-7 20-23 35-32 54-14 30-20 62-23 94-2 14-2 28-7 42-10 25-22 48-26 75-3 13-4 27-5 42 0 12 1 25-1 38-3 13-11 26-16 38-7 16-15 40-12 57v10c-2 10-20 5-22-3-2-10 3-21 3-30a254 254 0 00-3-43c-4-28-13-58-32-80-13-17-46-47-37-72a102 102 0 00 4-47c-7-52-57-95-100-106-10-3-20-4-30-4a150 150 0 00-34 4l-16 2h-5a50 50 0 01-19-9c-12-7-30-17-52-19H7710a111 111 0 00-83 37c-4 5-12 17-20 16-8 0-8-15-10-22l-5-16a130 130 0 00-23-33 91 91 0 00-66-30l-7 1c-72 7-110 65-105 122v11c3 18 4 28 0 42-4 16-7 33-7 50 0 15 2 30 0 45 0 10-3 20-6 31-5 24 6 52 7 72v34l-7 17-4-10c-2-8 0-16-2-24l-7-24c-15-42-24-100-57-132l-13-14a224 224 0 00-100-71 242 242 0 00-110-27h-1c-66 0-114 33-137 53a470 470 0 00-60 64c-20 27-34 48-63 68a230 230 0 00-73 75c-10 18-17 37-22 57-1 7 1 46-12 44l-7-23a102 102 0 00-35-75c-7-6-4-16-3-24l3-39a90 90 0 00-3-23l-6-22c0-23 2-46-2-70-6-36-20-69-30-95-10-25-10-50-10-75 0-37 0-78-5-123-7-60-30-141-40-180l-4-13c-4-16-1-65 2-104v-18c4-48 12-86 27-121l20-50 63-150c20-56 2-99-7-115a96 96 0 00-73-50l-10-1-21 3c-41 10-82 51-102 100-7 20-10 25-36 57l-20 23a190 190 0 00-46 71c-5 16-7 34-10 58-3 27-7 64-17 88a400 400 0 01-49 72c-17 23-32 43-40 60a984 984 0 00-63 219l-4 24c-8 18-26 66-34 114-1 10-4 18-22 39l-8 8a230 230 0 00-40 58c-9 15-12 34-23 47-9 10-10 10-20 0-8-8-20-20-20-32-2-16 1-33 0-50-2-21-8-43-20-62-15-27-15-47-12-78l2-27c3-32 1-66-14-95-12-23-40-37-40-66 0-32 10-70 22-100a795 795 0 00 50-170 107 107 0 00-106-116h-4a90 90 0 00-45 15 230 230 0 00-52 59l-14 18a274 274 0 00-60 136 110 110 0 01-12 50c-10 17-26 40-40 53-10 8-31-20-41-25a83 83 0 00-34-7 84 84 0 00-63 28l-4 4a353 353 0 00-68 180v48l-9 30v2a850 850 0 00-8 30l-10 44-15 58c-4 19-13 44-23 71-10 30-21 62-30 95-20 77-10 162-6 198l6 43c5 25 10 50 8 69-1 26 0 53-7 80a160 160 0 01-36 68 442 442 0 00-63 96c-23 53-18 118-15 158v3c2 28 11 52 20 76 6 16 13 33 17 50 8 40-6 98-12 123l-2 9c-8 38 5 73 14 96l4 12-2 27a1382 1382 0 00-4 90 370 370 0 00 10 112c18 64 65 77 85 80h11c12 0 23-2 34-6 30-14 44-40 56-63l4-6c6-10 16-30 18-53 2-18 7-35 12-54v-2l10-38c0-5 4-13 9-22 11-24 27-57 28-108 1-30-5-78-12-112-3-18-10-37-8-55 2-20 13-38 22-55 7-15 13-20 23-28 18-15 44-36 58-85 7-26 4-51 0-80-2-26-6-55-2-82l13-64a580 580 0 00 14-75l1-12a960 960 0 01 10-89l13-65a516 516 0 00 14-114l-1-18c9-13 44 24 52 30l10 14 2 15 7 50c7 62 18 90 34 123l10 20c14 33 15 47 15 58 0 18 2 35 7 51 5 20 15 32 12 52-4 26-10 61-1 100a140 140 0 00 36 68 130 130 0 00 31 22c8 4 22 5 28 12 7 7 5 28 6 38a260 260 0 00 30 100 130 130 0 00 70 62 104 104 0 00 137-70c6-20 7-40 6-77 0-28 0-63 4-86 6-24 18-49 30-72 7-15 15-30 20-45a360 360 0 00 13-115c1-30 2-59 5-79 5-15 21-26 29-40l6-5c8-2 7 42 7 46 3 40 15 70 23 92l7 20v68a730 730 0 00 0 96 426 426 0 00 73 184c5 8 16 15 20 25 6 14-2 22-5 36-7 35-15 74-13 110 2 20 7 39 17 56 6 10 15 20 23 29 8 7 16 13 16 25l1 32c2 16 5 30 10 45a130 130 0 00 38 52l24 18c8 5 21 8 22 20l-3 19c-1 9-3 20-3 33 0 30 10 60 33 79a98 98 0 00 24 14c13 6 27 3 40 7 12 5 20 15 32 20 10 3 20 5 30 5a88 88 0 00 52-17 90 90 0 00 38-78c0-16-5-28-7-35l-3-18-3-17-3-18c0-15 0-27-2-37-6-47-24-75-46-110l-8-11c-13-20-17-28-4-80a220 220 0 00 5-105c-3-16-10-30-18-44-10-16-23-28-32-44-7-10-4-22-2-34v-3c4-39 9-78-7-117l-13-27c-10-18-20-38-23-60 0-4 2-10 11-28 10-18 20-40 28-71l7-28c10 0 10 23 12 29 4 30-2 60-3 90-1 30-1 60 2 90 7 60 54 104 110 104h2l21-1 20 14c10 6 21 9 31 14 10 5 15 13 21 22a112 112 0 00 88 44c16 0 30-3 45-8 10-3 18-9 27-10l30 3c10 0 21-2 32-5a384 384 0 00 163-120l9-13c10-15 15-20 30-36 22-22 40-50 53-77l10-22 4-12 3-10 7 12c1 9-2 17-4 25l-10 41c-5 37 0 64 5 83l3 16-3 23a270 270 0 00-3 77c7 50 50 87 104 87 30 0 56-10 75-30 40-40 40-105 40-151v-8c0-4 7-18 11-27 6-13 10-42 17-40 9 2 29 40 40 60s28 36 43 53c8 8 15 14 16 27l-1 36c-3 41 10 68 18 86l5 12c7 20 10 25 15 61 10 65 54 122 105 137 10 3 20 4 30 4 48 0 89-30 102-74 0 22 2 50 4 70 3 36 11 66 25 90 4 8 10 15 15 21l2 3a84 84 0 00 64 30l10-2h5l-10 17-8 15a300 300 0 01-47 27 730 730 0 00-48 26 532 532 0 00-81 62l-12 10-30 26-1 1c-36 30-52 44-62 60-31 44-43 77-40 108l2 9a100 100 0 00 98 78l16-1c46-7 71-33 88-50l3-2 18-16 37-32 2-3c14-13 42-42 67-52 10-4 40-10 61-14 38-7 73-14 98-26a550 550 0 00 124-102l33-36a640 640 0 01 35-39l7-4c22-15 63-43 80-94 0-2 6-16 44-74l43-48 13-16 26-28c16-20 20-40 25-57 2-10 4-18 8-26a250 250 0 01 76-60c16-10 35-24 55-39h2v-1l48-34a200 200 0 00 80-95l4-8a230 230 0 01 72-57l10-3c32-10 81-26 135-72a266 266 0 00 68-89c4-10 6-18 15-24 10-7 20-14 31-18a380 380 0 00 126-84c3-3 14-10 54-33l26-14c14-10 34-26 67-54a5060 5060 0 00 120-110c11-10 20-22 25-34v-2c16-36 6-78-25-102M2720 1795l-5 23c-15 20-29 52-28 86 0 28 3 28-17 10a93 93 0 00-61-21c-15 0-30 3-44 10-11 5-20 12-30 20l-5 2-8-2-30-20c-20-12-40-22-63-25h-12c-8 0-17 0-25 3-8 2-15 7-23 9-9 2-28 0-35-6-14-11 2-28 5-44a110 110 0 00-12-80c-13-23-26-26-1-46l34-26c22-18 40-38 62-56 13-11 28-20 38-35 8-10 10-29 18-38 6-6 23-5 37-5h14c21-3 44-5 65-13 12-5 24-12 34-20s25-26 31-24v26a450 450 0 00-49 133c-5 33 5 69 27 95a97 97 0 00 59 34h8c7 0 14-1 16 7v2M1713 2160l-11-6c-20-27-60-40-73-70a290 290 0 00-114-150c-17-10-38-19-58-20-10-1-22-1-30-7-10-8-14-22-23-31-20-21-40-27-66-35-13-4-17-19-24-30a140 140 0 00-26-34l3-13 7-12 12-20 16-2c17-2 35-6 55-14 17-8 34-20 50-35 26-26 46-59 60-98 6-15 10-30 15-47 2-10 1-23 8-30 10-15 24-25 33-41 13-23 16-55 16-80 0-12-4-26 4-34a198 198 0 00 48-87l6-24 7-14c12 0 19 10 28 17l29 23c7 4 18 8 20 17 5 13-6 16-14 20-9 6-19 13-25 22-18 26-21 63-11 106l5 22c0 8-4 15-6 22-6 23-11 42-10 61 1 14 5 28 11 40l12 18c15 17 8 20-2 39a226 226 0 00-12 30c-8 21-12 44-12 66 0 22 7 43 18 62l16 23c5 6 12 10 13 20 3 21-4 48-7 70-3 20-3 42 1 62l9 30c5 20-4 42 0 64 5 18 13 34 23 50 4 8 5 20 5 28 0 8-2 20-6 22M1200 1280c-4 14-19 25-26 36-10 13-22 21-32 34-17 22-28 50-32 82-1 13 0 58-12 65l-5 2c-10 2-20 5-30 5a265 265 0 00-110 57c-20 16-35 7-57-3l-6-21a110 110 0 00-12-30c-6-13-15-21-24-30l-5-6 2-25c0-10 0-21-2-32-3-16-8-32-15-45a120 120 0 00-18-26c-7-7-15-14-18-25-3-15 4-32 3-47-1-17-4-38-14-52-13-17-24-40-40-56-11-11-7-31-8-47 3-10 7-24 7-42 0-14-17-36-9-50 10-14 40-10 55-17 28-13 52-33 72-50 10-8 20-20 33-20 15 0 33 6 48 7a125 125 0 00 8 0c8 0 17 0 23 4l15 24c7 10 16 17 25 25l1 1c8 7 20 18 35 21 12 4 24 7 37 8 10 2 22-1 25 12l4 21c5 13 12 25 20 35l24 27 17 20c3 10-9 27-10 40 0 13 3 27 6 40v2l3 5c6 15 21 27 22 43v7m2376-166a97 97 0 00-76-33c-20 0-41 4-63 12a766 766 0 00-173 114c-10 10-32 30-39 34a165 165 0 00-45 40l-24 24h-2c-10 0-18 1-27 3-20 6-37 16-53 28-10 7-17 16-26 24-16 11-22 11-20-10 0-19 1-38-1-57-3-18-12-32-16-50-3-13-1-29-3-42-2-22-14-44-5-65 16-37 30-78 28-119 0-42-2-130-87-150a91 91 0 00-65 6c-9 5-16 12-26 15-10 3-20-1-30-1-20 0-38 6-53 17a100 100 0 00-35 44c-18 43-11 80-7 104l3 13a810 810 0 01 3 43c2 40 1 71-4 98l-4 21-14 73c-4 15-3 30-7 45l-8 20c-12 16-20-9-29-17-10-10-20-18-34-24-20-10-42-14-65-14-24 0-47 6-70 12-12 2-24-12-35-18-15-7-32-11-50-11-43 0-87 12-125 33a200 200 0 00-54 42 150 150 0 00-18 26c-5 10-5 20-10 30-8 10-19 10-30 15l-30 13a148 148 0 00-35 24l-2 1c-14 13-56 52-53 118 0 10 0 16-10 40l-10 17c-10 21-25 48-23 98 0 11-12 30-14 10l-3-17a117 117 0 00-63-85c0-4-2-11-2-25 0-10 5-32 10-50l11-47c12-60-4-98-16-125v-5c2-9 4-21 4-36 0-22-7-43-20-60l-20-19c-7-5-16-8-24-12l-7-5 9-17 14-22c14-27 18-60 18-90 0-19 3-27 7-40l7-20a140 140 0 00-16-112c-10-16-25-22-39-34l-7-25a98 98 0 00-40-58 120 120 0 00-60-20h-10c-57 0-110 40-127 97h-14l-16-20-14-18c-3-10 0-20 2-28l2-35c0-24 0-48-6-71-12-50-52-80-65-90-24-20-50-30-78-31h-10c-8 0-17 5-24 2-9-3-9-11-10-18a107 107 0 00-102-67h-4c-13 0-26 4-40 4s-20-7-33-15c-20-13-40-27-63-35l-51-24-21-12a264 264 0 00-150-45 412 412 0 00-26 1c-18 1-39 3-60 10-32 8-53 24-68 36l-7 5a1906 1906 0 00-50 37A1347 1347 0 00 690 540c-42 34-59 37-64 37-10-1-24-5-37-9h-2c-10-3-24-7-44-7H530a292 292 0 00-106 45l-3 2-28 20-18 18c-10 4-17 0-26 0l-20 2c-27 5-50 21-66 45a170 170 0 00-24 111c4 38 18 71 40 97l22 20c7 8 17 13 17 25 0 15-6 30-10 45-10 43-25 101-1 164 17 44 48 76 70 100 10 10 26 22 30 38 7 18-3 42-8 60-5 15-8 28-10 43 0 18 1 35 6 50l6 20v23c2 16 8 32 17 47 4 7 4 11 2 30l-2 18a160 160 0 00 27 103l18 24c8 10 19 15 18 29-1 10-5 20-5 31 0 20 3 40 10 60l8 22c14 36 36 95 38 140a139 139 0 01-13 64 123 123 0 00-5 97 140 140 0 00 28 46l2 2c6 7 10 14 14 21l4 7c3 8 8 17 10 25 1 14-16 35-20 50-7 20-10 40-10 62v2c0 42 1 83 35 131 11 16 12 20 17 40s14 40 27 58l12 16c0 10 0 25 4 40 0 3 0 13-2 22-1 10-3 20-3 33 0 7-2 30 10 53a100 100 0 00 29 38c16 13 24 15 22 37-2 26 0 55 10 80a172 172 0 00 70 86 100 100 0 00 48 12 100 100 0 00 72-30c32-33 34-75 34-87 0-14 0-28-2-41-2-13-5-27 2-38 5-10 15-19 22-27 15-20 28-40 33-65 8-40-5-78-28-110-2-2-3-7-4-17v-13l5-14c9-25 24-66 10-114a150 150 0 00-27-54l-3-5-8-12-12-19-7-10c2-8 7-15 10-23a202 202 0 00 20-157l-7-21-7-15 5-17 5-18 2-18c1-13-3-20 13-13l12 3 28 2 21-2h8l16 19c6 8 10 16 15 25 7 16 24 47 52 70a110 110 0 00 64 22h10a90 90 0 00 25-6l17-6c8 3 15 11 23 15 12 4 27 2 40 8 13 8 20 30 24 45 15 69 58 110 116 110 8 0 16-1 23-3 20-4 24-10 30 12 16 48 47 90 92 114l18 8 17 6c25 6 31 38 44 58a230 230 0 00 97 93c8 6 20 10 27 18 9 10 5 27 8 40 6 30 19 57 34 82 4 9 12 20 35 50l28 40c10 20 26 52 67 73 11 6 22 10 30 13l12 5 8 14 2 4c6 10 12 21 21 33a110 110 0 00 74 47h12c30 0 58-13 76-37 32-42 18-91 12-113v-3a220 220 0 00-16-92l-1-5c-7-37-50-127-77-161l-4-5a582 582 0 00-43-46l-2-3c-18-18-20-20-21-33-3-26-5-59-26-90-12-17-30-41-56-59-17-12-35-18-44-21-18-10-24-15-25-18-5-8-11-19-4-28l17-10a60 60 0 00 22-20c13-16 20-36 25-56v-5c7-28 6-46 4-74l-2-37c-1-30 2-36 9-52l5-13 8-20c7-22 18 8 20 11a94 94 0 00 23 25c10 8 23 13 35 17l36 7c6 15 5 32 15 47 8 14 30 30 34 45 7 30 6 59 21 87a90 90 0 00 78 48h2c73 0 103-69 121-110l10-21c4-9 9-22 16-29l28-3c10 0 22-3 32-8 19-8 35-20 50-30l17-12c7-3 16-1 23 0h43c67-4 96-45 113-69l5-8 15-18-3 23a180 180 0 00-7 34c-2 15-3 30-10 44a476 476 0 00-33 123c-7 52 6 84 20 103 9 40 38 77 90 77 29 0 68-13 90-72a180 180 0 00 22-41c5-15 8-28 10-38l2-10a400 400 0 00 46-133l13-74 9-50 7-15c8-2 12 6 17 11l23 16c7 8 10 20 15 29l11 22a170 170 0 01 18 59c2 12 4 26 8 40 12 45 42 71 60 87l10 8c12 15 20 42 27 64 5 15 9 28 15 40 11 26 31 55 46 77v1l10 13c0 4 5 17 10 53v1c4 16 10 30 15 45 4 13 4 26 4 40a130 130 0 00 30 80 98 98 0 00 70 28 100 100 0 00 60-20c15-11 20-30 35-40 17-11 34-15 49-32 24-31 28-70 12-142-3-16-11-36-21-64-13-34-30-81-40-124-12-44-16-75-20-102-2-18-4-35-8-54-8-42-27-70-40-90-7-10-13-18-18-28-3-6-4-11-5-24-1-20-4-50-25-83a130 130 0 00-60-50c-15-6-31-6-46-10-17-6-23-15-33-30-8-11-17-25-30-40a313 313 0 01-40-56v-2c-5-15-18-27-24-42-10-26 15-21 34-30l3-2a460 460 0 00 115-72c12-12 37-43 46-76 8-26 17-48 27-66 4-5 20-14 32-20 12-7 26-14 40-24 23-15 45-32 62-55 17-23 25-47 47-65 12-10 20-23 33-32 10-7 20-12 30-20 24-17 40-41 44-70a90 90 0 00-20-74" fill="#c3d946"/><path d="m7690 1590-4-5-1-1-6-6-3-4-8-9-1-1-2-2-2-4 2-3 12-10 5-6 1-3 8-6 2 1 2 8v2l2 6 4 26-3 10-1 1-4 6h-2" fill="#070709"/><path d="M4973 2090c-10-33-23-62-31-80l-4-10c-6-14-4-59-3-77v-24c0-14 0-26-2-39a160 160 0 01 0-49c2-13 7-35 16-66l16-57v-3l7-25c7-23 10-48 5-72a136 136 0 00-12-34l-10-19c-3-7 0-15 1-23 4-20 8-38 12-48l6-16c6-18 14-39 17-62 5-50-21-96-66-113a108 108 0 00-40-7c-13 0-27 3-40 8-29 10-50 32-66 58a330 330 0 00-40 90c-7 21-2 46-10 67-6 14-10 29-14 44-4 15-4 30-8 45a180 180 0 01-18 40c-8 15-12 32-16 48-4 16-3 42-11 55-5 8-15 11-22 17-7 7-12 17-21 22-23 10-13-16-10-30l7-30c10-38 18-77 18-110 0-27-5-50-14-70a96 96 0 00-83-60h-6c-44 0-76 24-97 74l-5 9c-8 13-19 30-26 51l-11 34-11 27h-7c-20-5-16-25-20-41-4-16-10-31-16-46a120 120 0 00-109-73c-20 0-40 6-56 18l-8 7c-9 8-14 20-20 30l-10 7c-7 0-7-16-8-21-2-5-2-20-2-32 0-20 0-45-6-73-2-13-8-40-32-64a96 96 0 00-67-28c-56 0-88 46-100 63-12 18-20 37-26 56-4 13-3 28-8 40-5 12-13 13-23 17-34 14-60 47-77 100l-10 27-5 10a280 280 0 00-17 48c-8 35 1 66 7 84l1 6c3 9 6 17 6 26 0 10-4 19-7 28a701 701 0 01-43 115l-17 31a142 142 0 00-15 84 200 200 0 00 13 48c4 11 11 22 12 34v33a99 99 0 00 100 100c44 0 81-30 92-75l12-20c6-8 13-18 19-30 7-14 12-30 11-47 0-10-6-18-6-27 0-10 14-23 23-29 13-9 20 30 24 44 7 20 17 36 26 54 12 26 19 51 37 73 20 25 47 40 77 40 24 0 48-10 66-27 10-8 17-18 24-29 5-10 5-23 13-31 10-11 30-8 43-12a90 90 0 00 41-24c12-12 13-48 27-53 19-7 24 23 29 35 4 10 10 20 16 30a97 97 0 00 72 41h8c10 0 20 0 28-3 9-3 16-10 25-9 10 2 19 12 27 16 20 10 43 15 64 25 20 10 40 17 63 18h7l18 1c15 0 28-3 42-6 22-6 25 12 38 25 12 12 45 45 94 45 25 0 50-10 70-26a130 130 0 00 48-123c-3-26-9-52-16-75" fill="#c3d946"/><g fill="#034247"><use xlink:href="#a"/><path d="M724 956c15 0 28-2 40-8 20-10 40-25 58-40 20-17 40-35 54-35h10c12 0 22 0 34 3l38 4h7a161 161 0 00 26-2l23-2c8 2 8 13 11 20l12 24c9 16 21 30 38 39a57 57 0 00 24 5c10 0 20-3 29-6 7-3 15-10 24-10 10-3 21 10 26 20 10 16 6 26 0 44-4 15 1 30 11 43 10 13 24 26 38 40l22 23c5 5 14 10 16 18 1 8-5 10-10 15l-12 14c-8 13-10 27-5 40l7 12 3 4c13 15 20 25 20 37l-1 24v4c0 12 0 24-4 31l-8 6c-7 5-16 10-23 21l-9 20-15 13-14 14c-10 13-16 30-18 50-7 54-14 86-20 97a50 50 0 01-37 23l-14 3-26 5a208 208 0 00-92 50l-17 17c-10 11-20 23-30 25l-15-12c-14-13-31-28-55-28-27 1-44 16-64 32l-3 1-3-3c-4-13 4-32 10-44l5-10 2-3c5-10 17-32 5-55-7-12-17-17-23-20h-3l-7-6-6-17V1480c4-30 8-76-22-98l-13-8c-8-5-17-10-18-16l-2-7-4-16c7-10 10-23 12-39 0-10 3-28-7-44l-12-15-8-17-12-13c-6-5-16-7-17-15-4-18-5-38-5-57v-30l2-5c2-5 4-13 4-22 0-17-10-28-16-33l-2-3L650 1030c-7-10-10-19-10-27v-5c2-11 3-44 17-48 8-2 19 1 26 3 12 2 25 4 40 4m204-460a360 360 0 00-22 0c-14 2-30 3-46 8-20 5-33 16-45 25l-8 6-49 36-27 22c-30 23-69 50-105 51h-9a350 350 0 01-46-11l-2-1c-8-2-16-5-26-5h-7c-10 2-20 6-28 9a260 260 0 00-49 26l-4 3-20 14-13 14-5 5c-7 7-22 30-34 27-13-3-21-12-35-12H340c-7 2-17 6-25 18-14 20-14 48-12 68 2 23 10 44 24 59l26 25c17 14 25 22 28 57 2 20-5 44-10 68-10 38-21 81-5 125a240 240 0 00 56 77c26 27 50 52 51 86 0 29-7 56-13 76-4 12-6 22-7 30-2 22 6 34 11 42l4 6-1 8c-3 10-6 26 5 44 12 20 16 35 15 53l-3 14c-4 20-10 48 14 82 9 14 18 24 26 33 14 17 21 26 23 40l-3 20c-3 15-8 36 2 66l8 20c15 40 40 106 41 162 2 33-5 64-18 94-3 6-12 24-4 46 5 10 12 20 18 27l1 2c8 10 17 20 24 36 20 43 25 65 19 84l-10 16c-10 16-19 33-19 70v2c0 38 0 63 23 95 17 24 20 37 27 60a100 100 0 00 17 38l15 17 8 13v16c0 10 0 21 3 33 3 14 1 28 0 44a300 300 0 00-3 28c0 4-1 13 3 23a60 60 0 00 24 24l3 2c14 10 30 21 31 33 1 10 0 20 0 32-1 23-2 47 6 68a102 102 0 00 39 50l17 5c10 0 19-3 26-10a60 60 0 00 14-40l-3-63-2-12c-1-8-2-15-1-20l13-18 5-4c10-10 20-23 30-35 31-46 10-74-2-90l-4-6c-7-10-10-26-13-44a110 110 0 01 0-32l9-25c7-20 17-46 10-74-5-13-12-24-18-33l-5-7-8-12-13-20c-8-13-15-25-17-36v-15c2-13 8-25 15-39 12-22 26-49 23-87a150 150 0 00-19-62c-4-10-9-18-8-22l6-17A90 90 0 00 870 2080a82 82 0 00-10-30l-2-3c-12-24-30-60-23-82 2-10 14-25 24-30 14-5 30 20 40 29 18 18 40 40 60 50 9 3 18 4 29 4 11 0 22-2 31-3l18-3h4c22 10 59 70 67 87 5 10 16 31 33 44a40 40 0 00 23 9h4l18-7 17-13c8-7 10-10 14-10h2c8 0 20 12 28 20 10 10 16 16 24 20 8 3 17 3 26 3 12 0 20 0 28 10a248 248 0 01 42 85c9 38 26 58 52 58l18-3c9-2 18-6 26-10 10-4 20-8 26-8l5 1c11 9 38 70 47 90l5 10c12 25 43 55 74 60l15 2c15 1 20 2 30 19l8 17a350 350 0 00 56 89c13 12 27 21 45 31l22 14 4 3 2 1c12 8 24 16 32 25l7 14-1 8-2 11c-3 33 15 66 28 87a730 730 0 00 30 44l34 46c8 20 16 36 40 47 7 5 15 8 23 10 19 8 32 13 43 32l10 16 2 4c5 9 10 18 17 27 5 6 14 19 29 20h4a30 30 0 00 24-11c11-15 7-35 1-55v-2l-4-20c5-25-7-59-11-69l-4-16a480 480 0 00-63-130l-4-6a513 513 0 00-38-40c-19-20-38-40-40-53l-3-25c-2-22-3-40-14-57-10-13-23-31-40-43-10-7-20-10-27-13l-6-2-2-1c-13-6-41-20-55-47l-5-10c-15-30-29-58-54-65-14-4-40-15-48-39a550 550 0 01-9-30c-8-28-16-60-32-81-16-22-44-40-62-52l-14-10c-4-5-12-22-18-37-17-40-38-90-87-119-15-8-30-13-44-13h-7l-27 8c-12 4-13-2-17-11l-3-6-14-28-2-2a60 60 0 00-24-27l-17-4-16 4-12 10c-8-8-11-20-16-30l-8-14c-5-12-11-24-19-36-10-14-27-42-55-45h-5c-12 0-15 4-23-7-7-10-5-13 7-20l8-3c13-6 26-13 38-25 11-12 18-26 23-38l5-10a40 40 0 01 23-20c10-5 23-6 35-8h6c12-2 24-4 36-10 10-4 20-10 30-20a251 251 0 00 63-145c2-8 3-19 5-21l5-4c15-8 30-20 38-53 4-18 3-34 2-48-1-13-2-24 2-31l13-17c18-20 46-51 48-104 1-24-1-45-4-63-3-24-5-45 0-65 7-23 13-44 13-68 0-30-11-55-34-74l-2-1c-10-10-18-15-20-24 0-5 0-23 2-38 3-31 7-75 0-104-6-24-26-42-41-53a80 80 0 00-43-18h-5c-16 0-30 6-42 10-10 4-17 7-24 7-14 0-17-5-18-11l-2-16v-7c-1-9-2-19-5-30-2-5-5-17-15-25-10-10-25-10-30-10h-4c-9 0-20 0-27 2l-26 2a50 50 0 01-19-3l-37-23a271 271 0 00-50-30c-20-6-40-16-58-25l-25-15a200 200 0 00-117-35M724 930c-12 0-24-2-35-4-10-2-20-4-27-4l-12 2c-28 8-32 48-34 70v6c-2 16 4 31 13 44l13 16c5 6 11 10 12 19 0 7-5 15-6 22v34a385 385 0 00 2 37c1 15 1 32 12 44l18 11 5 6 3 8c3 11 12 16 18 25 4 8 3 20 3 28-1 10-3 20-8 27-8 12-4 25 0 38l3 7c4 14 17 23 29 30l12 8c18 13 14 49 12 73l-2 18c0 14 4 28 15 37l12 9 16 11c6 10-2 23-7 32l-6 11c-10 20-17 50-10 68a30 30 0 00 15 16l10 2c13 0 22-7 30-15a60 60 0 01 40-19c14 0 26 11 38 22 10 10 20 18 32 18h4c26-5 43-33 60-50a190 190 0 01 81-42l40-8a70 70 0 00 51-34c11-15 19-48 26-110 1-12 5-26 13-36l9-9 13-8c10-9 10-21 17-31 8-12 24-16 32-30 7-13 7-31 7-47V1260c2-24-13-41-27-60l-3-5 2-16c10-15 30-20 27-42-2-16-20-33-47-60a577 577 0 01-35-39c-10-12-7-17-3-26l5-13c5-25-30-72-45-77l-10-2c-10 0-20 4-28 9-10 4-20 9-30 9l-13-3c-20-10-33-40-40-58l-10-20a30 30 0 00-23-8l-19 2c-8 2-18 3-28 3h-7c-13 0-24-2-35-4-12-2-23-4-38-4h-12c-22 2-45 20-69 41-17 15-35 30-51 37-10 4-19 6-30 6m204-408c20 0 40 3 60 10 25 9 47 25 70 37 20 10 40 20 60 28 14 5 30 15 45 26 13 8 27 18 40 24 10 4 19 6 30 6h1c10 0 20 0 30-2l23-2h4l13 3 6 14c3 10 3 21 5 32 0 8 0 14 2 19 3 12 12 32 44 32 24 0 43-17 66-17h3c10 0 20 5 29 12 12 9 27 23 30 38 7 25 3 66 0 96-1 25-2 38 0 46 4 18 17 29 28 38l2 1a66 66 0 01 25 54c0 20-6 40-11 60-8 26-5 50-2 76 3 18 5 37 4 59-2 43-25 69-42 88-7 8-14 15-17 22-7 14-6 29-4 45 0 13 1 26-2 40-5 25-16 30-25 37l-16 14a110 110 0 00-7 30c-7 46-20 94-55 129a80 80 0 01-23 16c-9 4-19 5-28 6-16 3-32 4-47 10-18 6-30 17-38 34-7 14-12 30-23 40-10 11-26 17-40 25-13 7-43 28-26 46l10 11 9 13 19 8h1l16-3h2c15 2 28 22 36 34 10 15 17 31 26 47 23 44 27 50 34 52h4l15-8 10-13h9l15 20c5 7 10 16 13 25 5 10 10 22 17 30l15 6 16-3c9-3 17-7 26-8h4c10 0 21 4 30 10 40 23 60 64 77 105 8 20 15 36 22 44 3 4 8 7 20 15a190 190 0 01 54 45c14 18 22 47 29 73 3 12 6 23 10 32 12 35 46 50 65 55 14 4 25 27 38 52l4 10c20 37 58 53 70 60l8 3 20 10a140 140 0 01 34 35c7 11 8 26 10 46l2 25c5 35 51 65 85 107l3 5a465 465 0 01 58 118l5 22a120 120 0 01 10 55c-1 8 1 18 4 30 0 4 11 36 0 36l-10-10c-7-8-13-18-18-27l-10-18c-22-35-51-37-78-50-15-9-20-20-28-37-4-8-60-81-64-90-12-21-27-48-25-72 1-10 5-20 2-30-3-8-7-15-12-22-10-13-25-23-40-32l-4-3-23-14c-16-10-30-18-40-28-20-20-39-58-50-81l-10-20c-17-28-33-30-50-31l-12-2c-21-3-46-27-55-45l-5-10a324 324 0 00-56-100l-20-6c-11 0-23 5-36 10l-24 10h-10c-5 0-18 0-26-37-5-22-39-90-56-105-12-10-27-10-40-10l-16-2-15-13c-13-12-28-27-47-28h-2c-20 0-30 17-45 27l-7 2-8-2c-10-9-20-23-25-35-6-14-47-84-80-100l-15-2-23 3c-8 1-17 3-26 3l-18-3c-16-7-36-27-53-44-24-24-38-37-52-37-14 0-47 17-56 50-9 31 10 71 25 100 4 8 8 16 10 25 2 20-14 37-18 56-2 14 4 26 10 40a110 110 0 01 17 52c2 30-10 52-20 73-8 15-16 30-18 48v22c3 17 12 32 20 47 8 10 15 20 22 32 7 10 15 20 19 32 8 30-13 59-18 88a160 160 0 00 15 94l6 9c10 13 22 28 1 58l-27 32c-10 10-22 20-25 34-3 14 1 27 2 40a725 725 0 01 4 61c0 8-4 24-14 24l-5-1-15-16-12-20a160 160 0 01-4-60v-34c-1-24-24-40-42-52l-18-16-1-10c1-27 9-53 3-80-3-15-1-30-3-46a41 41 0 00-17-30l-10-12a90 90 0 01-14-29c-6-25-10-41-30-70-18-25-18-44-18-80 0-33 7-45 15-56 4-6 8-13 12-23 10-30 0-61-20-103-8-18-19-31-27-41a70 70 0 01-15-23c-4-9-1-17 2-25a230 230 0 00 22-106c-2-60-28-129-43-170l-8-20a70 70 0 01 0-50c1-10 3-20 2-30-3-23-15-37-30-54l-23-30c-17-26-14-44-10-63l3-17a110 110 0 00-18-68c-6-10-5-16-3-25l2-18-8-17c-4-6-8-12-7-26 0-5 3-14 6-24 6-22 15-51 14-84 0-44-30-74-58-104-20-20-40-42-50-68-14-35-4-73 5-109 6-25 13-52 11-77-3-43-16-56-37-74a230 230 0 01-24-23 77 77 0 01-17-44c-2-16-1-37 8-50l8-7h2l18 7c8 4 15 7 24 7 10 0 20-10 46-37l17-17 20-15c15-10 30-18 45-24l21-6h4l20 4c17 5 33 9 50 12h13c44 0 88-30 122-57l26-20 48-37c15-10 27-22 46-27 13-4 26-5 40-6h20"/><use xlink:href="#b"/><path d="M1754 895a77 77 0 00-71 56c-6 20 2 37 10 51l6 20c0 5-8 20-16 33-11 23-25 48-27 70a74 74 0 00 40 73l12 5h4l8 8 2 2c10 14 24 33 55 33 35 0 75-17 75-100 0-30 5-44 10-60v-1l6-16c2-9 8-40-8-62a38 38 0 00-31-18 50 50 0 00-20 4l-3 2 1-20c1-9 3-20 2-30-3-24-10-48-50-50h-5zm0 26h3c20 2 24 7 26 27 0 7 0 16-2 24-2 18-5 40 12 47l12 2c10 0 17-6 24-6l10 7c7 10 6 28 3 40l-5 15c-5 17-11 36-11 68 0 67-26 75-49 75-18 0-25-10-35-24-4-5-9-12-20-16l-15-6s-27-13-24-48c0-16 13-40 24-58a140 140 0 00 18-44c1-13-4-23-10-34-6-13-10-22-7-32 7-22 26-37 46-37"/><use xlink:href="#c"/><path d="m1835 1328-19 2a60 60 0 00-28 18l-5 5-6 1-18-5a30 30 0 00-16-4h-5a30 30 0 00-22 14c-10 16-6 44-3 59l5 16 4 13c0 12-6 30-10 45a140 140 0 00-8 41c2 24 20 33 30 39l7 4c3 8 0 40-6 55l-6 13c-14 30-28 60-28 86 0 26 19 46 33 61l12 15c2 6 5 36-5 107-4 32 0 50 10 71 4 10 3 18 0 33l-1 15c-2 19 7 34 16 50l10 19c3 10 1 54 0 84-2 25-3 50-2 64 2 40 27 74 55 76h4c30 0 37-30 40-47l1-6c4-20 4-32 2-57l-2-38c-2-45 5-60 14-80l5-10c15-37 32-85 30-113-3-22-12-40-20-56-5-10-10-21-12-31-3-18 16-45 30-65 13-20 20-30 20-40a70 70 0 00-40-74c-22-10-27-33-29-72 0-18 6-42 13-68l10-44c8-42-2-66-12-90l-3-7c-5-11-3-21-1-33 1-7 3-15 3-24 0-26-18-42-47-42m0 26c20 0 20 11 20 16l-2 19c-3 13-6 30 2 49l3 7c10 22 18 40 11 74-2 14-6 28-10 42-7 28-14 54-13 77 2 39 7 75 43 93 20 10 29 26 27 48 0 5-8 15-17 28-18 25-40 56-34 84 2 14 9 27 15 39 7 14 14 30 16 47 2 16-8 53-27 99l-5 10c-10 22-19 41-16 92l2 38a160 160 0 01-2 50v7c-5 18-8 26-15 26h-2c-11 0-30-22-30-52-2-13 0-36 0-60 3-51 5-82 0-96a190 190 0 00-12-22c-7-13-14-24-13-34l2-14c2-15 4-30-3-48s-12-30-8-57c5-37 12-102 3-122l-17-20c-12-14-26-28-26-44 0-23 16-55 25-75l7-13c8-20 14-60 5-78-4-8-11-12-18-16-10-5-15-8-16-16 0-5 4-20 8-33 4-17 10-35 10-50 1-12-6-25-10-37 0-7-7-40 4-40v-1l6 2c10 4 20 7 30 7l17-4c10-5 16-18 27-20l13-2M2610 1980c-8 0-20 7-32 20a60 60 0 01-44 16 80 80 0 01-44-12l-17-10a280 280 0 00-54-30l-16 8c-8 6-18 12-28 12a50 50 0 01-22-6c-7-2-14-5-23-5h-4c-4 0-14 8-26 16-16 11-38 28-57 28h-4a60 60 0 01-40-27c-7-11-12-30 0-56a290 290 0 01 28-51c15-26 33-55 30-70-3-15-13-21-23-28-8-5-16-10-20-19-10-22-4-60 42-102 19-17 37-30 54-43a250 250 0 00 47-40c10-13 20-20 27-25l9-8v-1l-5-2c-7-2-16-5-20-14l1-16c10-19 57-40 88-40 33-1 90-5 108-12 14-5 54-34 43-53l-9-7c-26-12-48-5-74 1-15 3-29 8-44 8a50 50 0 01-35-15c-9-7-20-18-31-18a130 130 0 00-70 18l-17 10c-22 12-36 20-40 37v12c-3 18-6 40-33 48l-2 1c-62 18-77 28-80 32l-5 4c-10 10-27 25-26 50a160 160 0 01-17 79 120 120 0 01-12 23 88 88 0 00-13 55c1 35-12 56-26 76l-9 14-13 19c-8 10-16 20-20 31-8 16-10 36-8 41l4 4c5 0 15-10 25-19 10-8 15-14 22-14l12 7c6 10-1 25-12 44-4 10-10 19-12 27-18 50-18 68-16 75 1 4 4 8 18 8l19-1 20-2c26 0 45 13 54 36 4 10 0 21-2 30-3 12-4 20 1 30a60 60 0 00 18 19c7 5 15 11 22 25 3 6 4 17 5 34 3 30 7 60 18 60 17 0 30-31 43-60l11-24c27-54 50-80 72-85h9a50 50 0 01 20 4l10 3 8-2c10-5 22-13 34-21 14-11 30-22 45-27 5-2 13-3 23-3l28 1 25 1h7c26-2 34-13 47-32l8-11c16-22 14-47 5-54l-5-2"/><path d="M2414 1352c-33 0-60 7-83 21l-16 10c-22 12-47 25-52 56l-2 13c-2 20-4 23-13 26h-3c-67 20-84 32-91 40l-4 3c-11 10-36 33-34 70 1 22-3 38-15 67L2090 1680c-10 18-18 33-16 68 0 27-10 42-22 60l-10 15-11 17c-8 10-17 22-24 36 0 0-18 40-7 64 10 16 21 18 28 18 9 0 14 0 10 10-21 58-20 80-16 91 3 13 14 28 42 28l23-2 16-1c16 0 25 5 30 19l-2 13c-3 12-8 30 4 50 8 14 17 20 24 26 6 5 10 8 14 17 2 3 3 16 3 24 3 37 7 83 43 84h1c35 0 51-38 67-74l10-24c10-18 18-36 30-52a50 50 0 01 22-19c12-3 23 7 35 7 8 0 14-2 20-4 12-5 25-15 38-24 13-10 27-20 38-23 2 0 6-2 15-2a482 482 0 01 52 2h10c38-2 53-23 67-43l7-10c22-30 23-72 1-90-6-5-14-8-22-8-16 0-33 10-50 28-5 4-15 7-26 7s-23-2-31-7l-16-10a205 205 0 00-65-33h-4c-20 0-33 24-54 15-8-3-20-8-33-8h-8c-10 2-20 8-38 21-11 9-32 23-42 23h-1a30 30 0 01-20-13c-5-9-5-20 0-33l27-48c24-38 39-65 34-89-5-25-23-36-35-44l-10-8c-4-10-2-37 36-72a400 400 0 01 51-40c21-16 39-30 52-46 9-10 16-15 22-20a40 40 0 00 17-17l1-2v-22l-12-15c0-8 15-11 20-14 10-3 21-7 32-7 22 0 90-2 117-12 16-6 50-28 59-55 5-12 4-25-2-36-6-10-15-15-20-18a98 98 0 00-42-9c-15 0-29 4-42 7l-8 2-12 2a90 90 0 01-26 5l-18-8-1-1c-10-10-26-24-48-24m0 26c13 0 23 10 31 18a50 50 0 00 36 15c15 0 28-5 44-8 15-3 30-7 44-7 10 0 20 2 30 6l9 7c10 20-29 48-43 53-19 7-75 10-108 10-31 1-79 23-88 42v16c3 9 12 12 19 14l5 2v1l-10 8c-6 5-15 12-26 24a246 246 0 01-47 41 595 595 0 00-54 43c-46 42-51 80-41 102 3 8 11 14 19 19 10 7 20 13 23 28 3 15-15 44-30 70-10 17-22 35-29 50-10 27-6 46 0 57 10 17 29 25 40 26h5c19 0 41-15 57-27 11-8 22-16 26-16h4c10 0 16 3 23 6 7 2 13 5 21 5 11 0 20-6 29-12l16-7c8 0 32 15 54 30l17 10a90 90 0 00 44 10c19 0 34-5 44-15 13-12 24-20 32-20l5 2c9 7 10 32-5 54l-8 10c-13 20-21 31-47 33h-32l-27-2h-1c-10 0-18 0-23 3-15 5-30 16-45 27-12 8-24 16-34 20l-8 3-10-3c-5-2-11-5-20-5l-9 1c-23 4-45 30-72 85a680 680 0 00-11 25c-12 28-26 59-42 60-12-1-16-30-19-61 0-17-2-27-5-34-7-14-15-20-22-25-6-5-12-10-18-20-5-10-4-17 0-29 2-9 5-20 0-30-8-23-27-36-53-36l-20 2-20 1c-13 0-16-4-17-8-2-7-2-25 16-75l12-27c10-19 18-33 12-44l-12-7c-7 0-13 6-22 14-10 10-20 19-25 20l-4-5c-3-5 0-25 7-40 5-12 13-22 20-32l14-19 9-14c13-20 27-40 26-76-1-28 4-38 13-55l12-23a160 160 0 00 17-78c0-26 16-42 26-50l5-5c3-4 18-14 80-32h2c27-9 30-31 32-49l2-12c3-17 16-25 39-37l17-10a130 130 0 01 70-18"/><use xlink:href="#d"/><path d="M2920 923c-19 0-33 15-43 26l-12 15-19-10v-1c-5-3-13-7-23-7l-20 6a40 40 0 00-14 20c-10 25-7 48-3 68l3 18 4 47c3 44 1 80-5 112l-4 20c-4 23-9 52-15 77-8 34-20 68-29 96l-10 30c-7 26-10 50-10 70-2 16-3 31-7 38a393 393 0 00-43 118 60 60 0 00 13 47 40 40 0 00 30 15c7 0 17-2 26-11l10-12 2-2a1099 1099 0 01 27-31l9-10 17-11c8 12-7 40-12 50a90 90 0 00-6 46c1 8 2 15 0 22a190 190 0 00-8 35c-2 13-5 37-8 43a92 92 0 00-23 58c0 14 7 23 13 30l9 16c0 12-10 91-18 124-4 16-7 37-10 57-2 20-5 43-9 50-10 21-29 80-34 118-2 15-2 32 3 47 3 9 12 14 15 22 4 9 2 19 7 28a30 30 0 00 27 15c23 0 32-24 36-36l2-4a120 120 0 00 18-33c4-11 6-21 8-30 2-11 4-20 10-29a350 350 0 00 38-112l13-73 20-107c2-14 14-3 25-3l10-1c16-5 26-20 32-30l3-4 6-2h3c4 2 7 2 12 17l2 6c5 17 11 37 30 43 12 3 17 10 39 54l10 22c17 32 20 55 24 77l7 34c8 27 27 44 42 57l17 16c20 24 30 57 38 83 4 14 7 25 12 34 9 21 27 47 40 67l13 20c8 12 15 54 18 70v2c2 10 7 20 13 30 2 4 4 20 5 30v11l1 8c0 25 3 42 14 53 7 7 17 11 27 11a40 40 0 00 40-35 356 356 0 00 3-38v1c4 4 10 9 17 12l13 2a30 30 0 00 24-11c8-10 16-26 1-92-2-12-9-30-19-57-13-35-31-84-42-130-12-47-16-80-20-108-2-18-4-34-8-51-5-30-19-48-31-66-8-12-16-23-23-38-8-16-8-30-10-44 0-17-2-35-16-56-17-26-44-32-68-36a100 100 0 01-34-11c-15-10-24-23-36-41-7-11-15-23-26-36a323 323 0 01-50-72l-2-7c-3-8-6-19-14-27a112 112 0 01-27-40c-6-16 6-39 18-54 3-3 16-6 25-9 12-3 26-6 38-12l4-2c40-20 80-42 100-61 9-10 25-32 30-50 10-30 20-57 32-80 10-17 30-29 55-42l37-21c40-27 50-40 68-78 10-20 17-25 26-31 6-5 14-10 21-20 5-7 18-17 30-26l7-5c13-6 34-18 38-42 1-10-1-20-8-26-10-13-26-13-31-13-13 0-28 3-43 9-25 9-106 60-128 78l-24 23a365 365 0 01-50 43c-14 8-21 16-30 26l-30 30c-15 14-22 16-27 16h-26c-22 6-40 15-72 47a180 180 0 01-83 50c-8 3-15 7-22 12l-13 11-7-18-1-10c-2-10-3-15-3-24 0-5 3-10 8-20 7-14 18-34 20-66 0-18 2-37-2-54-3-9-10-16-13-24-4-9-3-19-3-28 0-10 0-22-2-34-2-22-7-32-10-40l-5-12 8-26 7-18c10-26 24-59 23-93 0-47-4-84-42-93l-10-2zm1 27h3c14 4 20 14 22 69 0 37-20 76-29 102-6 19-10 30-8 40l6 16c3 8 6 15 8 32l1 32c0 18 0 33 8 43s13 14 10 61c-1 27-10 42-17 56-5 10-10 20-10 32 0 10 1 18 3 29l1 9c2 12 5 28 3 44l5 11 6 2 6-1a170 170 0 00 22-16l6-5c10-8 18-16 28-19 28-8 59-21 94-56 30-30 44-36 60-40h18c14 0 27-6 45-22a383 383 0 00 30-32c10-10 14-15 25-22 16-9 36-28 55-46l24-22c20-18 98-66 119-73a110 110 0 01 33-8c7 0 15 1 14 10-3 15-25 21-36 30-14 10-27 20-34 30l-16 14c-10 8-21 16-34 41a132 132 0 01-60 68 430 430 0 01-34 20c-26 15-52 28-65 53a423 423 0 00-34 84c-3 13-17 32-24 40a470 470 0 01-93 55l-4 2c-10 5-20 8-32 10-17 5-30 8-40 18-10 13-34 47-22 80 6 17 17 34 34 50l6 16 3 9a370 370 0 00 55 79 360 360 0 01 24 33c13 20 24 36 44 49 13 8 28 11 43 14 22 5 40 8 51 25 10 15 10 28 12 44a152 152 0 00 37 94c12 18 23 33 27 57 4 16 6 32 8 49a925 925 0 00 63 244 410 410 0 01 18 53c2 7 17 72 0 72h-2l-8-7c-10-10-16-22-20-35-6-15-9-22-18-22-4 0-12 2-13 14-1 7 0 18 4 37 3 17 0 48 0 58a14 14 0 01-15 13l-9-4c-5-4-5-20-6-34v-11c-2-17-3-40-10-51-4-8-8-15-9-22-6-34-12-67-21-82l-14-20c-13-19-30-44-38-62-4-8-7-20-11-31-10-30-20-65-43-93l-20-20a91 91 0 01-34-43l-6-31c-3-23-7-50-26-85-32-62-38-82-65-90-7-2-12-20-15-31-6-16-13-29-30-34l-10-1c-10 0-20 4-27 13-5 7-12 20-20 23h-4c-8 0-16-6-23-6-14 0-24 10-29 30l-20 108-12 73c-8 45-24 86-34 103a100 100 0 00-14 38l-7 26c-4 10-9 20-15 27-4 5-9 30-16 30l-7-18a30 30 0 00-12-23c-5-3-10-17-6-43 4-36 22-92 30-109 7-11 10-33 13-59 2-20 5-39 9-54 9-34 20-120 18-132-2-16-10-25-15-32l-7-12c0-16 10-34 16-40 8-8 10-24 15-57l6-30c4-12 3-23 3-33-1-11-2-20 3-33 10-24 25-80 0-94l-10-3c-13 0-25 13-39 30l-8 10a1427 1427 0 00-28 31l-2 2-9 10-7 4-10-6c-6-7-8-17-7-25 6-40 27-88 40-110 7-12 8-29 10-48 1-20 3-42 10-66l10-29c9-28 20-62 29-98l15-78 4-20a495 495 0 00 2-167c-3-25-13-48-3-73l6-8 4-2 10 4c10 5 18 17 30 17l4-1c16-4 20-16 28-24l1-1c8-8 17-17 25-17m5740 850c-8-32-66-55-94-55-22 0-24-2-30-10-10-17-36-30-66-34l-16-2c-20 0-35 6-46 12l-2-15c-7-28-37-28-50-28h-18c-10 0-20 3-30 4l-24 3c-10 0-11-3-13-5a220 220 0 01 18-55c7-18 15-38 19-55l10-35c8-30 16-60 16-86 0-21 8-38 16-54 7-18 15-35 17-58 2-44-10-58-28-74l-7-6c-9-9-12-17 0-38l17-30c11-18 25-38 40-69 14-31 16-55 6-71-6-9-17-20-42-20-36 0-68 28-81 72-5 15-10 23-16 31-5 7-10 14-14 25-5 16-10 24-17 34-6 8-12 17-19 32a310 310 0 00-18 94l-1 13c-1 9-8 23-16 42l-8 18c-10 25-11 63-10 96v6c0 8-5 17-11 30-4 6-7 14-10 22a170 170 0 00-7 80v3c2 17-2 30-10 41l-18 2c-10 0-24 0-38 4a110 110 0 00-42 26l-13 2H7990a60 60 0 00-44 15c-13 13-14 26-12 35 3 16 17 28 29 34 14 6 29 6 43 7h14l16 6 28 15 18 10a80 80 0 00 37 13h2l10-3h8l-3 15-10 23c-6 10-11 20-14 30a94 94 0 00-3 40v16l-5 7c-5 10-14 23-16 44a180 180 0 00 23 76l4 9c2 3 1 5-3 15-5 8-10 20-14 37-8 43 2 65 9 80l3 7c3 10 3 50 3 73v14c0 20-1 27-5 40l-4 20-7 26c-3 15-5 20-8 44-1 14-3 59-1 80 2 28 8 50 17 67l9 13 2 2c5 6 12 10 20 10h3c9-2 17-8 20-16l2-2c2-5 6-15 8-30 3-19 10-40 17-58 4-10 8-20 10-30l4-15a220 220 0 00 13-66c0-23 3-46 5-70 3-25 7-54 8-90 2-50 12-61 18-69l7-10a150 150 0 00 14-65c0-22-4-40-6-54l-3-20c0-5 3-12 7-20 5-12 11-27 14-48 3-24 0-50-2-72-2-19-4-36-1-43l10-8a40 40 0 01 25 10l5 4c16 14 31 28 57 28l20 1 22 1a80 80 0 00 34-6l6-1c10 0 21 8 32 15 8 6 17 13 27 17a170 170 0 00 60 13c16 0 28-4 36-12l1-1 8-19-7-18v-1c19-7 57-22 48-57m-3967 254-8 1c-10 0-23-9-30-17-6-7-14-30-3-46a60 60 0 00 10-35c0-3 3-10 10-17l15-6a90 90 0 00 35-26l3-2 20-12h1c10 2 13 18 15 28 3 26 0 48-8 64l-16 20-5 5-13 16c-7 10-15 21-26 27m-695-252-8-3-2-2-11-10-20-5-17 3-12 5v-15a154 154 0 01 18-47c13-22 20-47 26-65l9-20 10 13 1 20v7c-4 16-8 43 4 75 4 8 5 18 5 28v12l-3 4zm915-356 6-20a210 210 0 00 14-46c2-24-8-44-29-52l-17-3-20 4c-29 10-40 38-50 59v3l-7 13c-7 14-15 30-17 50v17c0 10 0 20-3 27l-5 12c-7 18-14 36-15 59 0 9-1 17-3 22l-3 7c-5 15-11 30-22 50-7 12-10 32-17 62-3 18-8 46-13 51-5 7-13 11-22 16l-24 15-14 14-8 8c-14 5-40 24-52 46-10 17-20 25-33 34-15 10-23 33-24 51 0 10-6 22-11 33l-9 10-5-18c0-10 6-18 8-27 2-8 3-17 3-25v-35l10-19 9-28c3-15 3-30 4-45v-20l2-12 6-42 7-31c9-34 17-70 17-96 0-18-3-32-8-43l-1-2c-3-7-12-25-33-27h-2c-26 0-37 25-42 39l-2 5-8 12c-7 11-14 24-20 40-15 47-30 84-39 99l-12 30-4 20-3 15-6-14c-3-10-7-22-12-30-10-17-23-25-40-25H4330l-6 2c-4 0-7-3-14-22-3-7-5-18-8-31-4-20-8-44-18-65-14-28-37-39-55-39-8 0-15 3-21 7l-3 2c-11 10-13 28-10 55v8c0 13-3 50-7 63-2 10-2 24 2 61 1 18 3 37 2 48-1 30-13 47-23 63l-6 8-4 12-6 4-8-17-11-20c-10-12-13-37-15-58-2-16-4-32-8-42-12-26-18-50-20-72-2-7-2-15-3-23-2-30-6-69-16-95-6-14-6-33-6-53s0-40-5-62c-2-10-5-23-15-33a36 36 0 00-26-11c-25 0-43 25-51 37-15 21-20 44-24 64l-2 9c-5 20-10 40-14 50-4 7-7 8-16 8h-10l-18 3c-20 9-35 39-43 63l-12 32-5 10c-5 12-10 25-13 39-5 20 0 38 5 53l2 8c5 17 13 45 10 53-3 5-6 14-10 32-7 22-15 53-29 85-9 23-13 30-20 43l-17 30c-24 45 5 95 15 111l2 4v25c-1 22-3 45 10 60a40 40 0 00 30 13c14 0 30-8 36-31 3-14 12-26 20-39 6-7 10-15 14-23 9-16 7-26 0-40l-5-14c-4-14 12-32 23-45l2-3c15-17 16-30 17-43 1-10 2-20 8-34 3-9 7-17 12-26 3-5 11-25 20-20l5 4 17 14 10 7a150 150 0 01 30 64c2 12 7 30 13 47l6 20 3 11 1 5a100 100 0 00 17 39c6 6 9 14 13 25 5 14 11 33 23 47a40 40 0 00 30 16c24 0 45-23 48-53 0-13-2-30-4-49a360 360 0 01-6-50l-2-17c0-16-2-30 0-50v-15l5-4 10 17 10 15c2 4 2 20 2 31 0 15 0 28 2 40a63 63 0 00 30 40l20 5c36 0 55-49 55-70 0-8-2-15-3-20l-1-4 1-9a82 82 0 00 6-20c3-28-1-60-10-78l-7-16v-10c2-9 10 0 14 4l13 10 16 15 6 10 13 21 10 12 10 15c6 15 15 30 23 44 10 18 20 36 26 51l5 14c8 24 17 50 45 53h3c32 0 35-32 37-47 0-7 2-15 4-24l4-18c5 0 6 28 14 48a94 94 0 00 27 38c15 12 27 15 40 20 9 2 17 4 28 9l6 3c10 6 27 16 50 17h7l15 1h2c10 0 19 0 25-3 17-6 32-21 49-47l10-18 1 7 2 12a878 878 0 00 9 40 80 80 0 00 24 45c13 14 30 27 52 27 12 0 23-4 33-12 21-18 30-41 27-69a450 450 0 00-15-66c-8-30-20-56-28-74l-4-9c-12-27-10-74-8-104v-21c0-10 0-21-2-32-2-20-4-41 0-65a830 830 0 01 17-73l17-57v-4l7-23c10-33 5-57-14-82-11-15-7-40-3-61 4-23 10-44 14-56"/></g><g fill="#00b1ca"><use xlink:href="#a"/><use xlink:href="#b"/><use xlink:href="#c"/><path d="M2610 1980c-8 0-20 6-32 20a60 60 0 01-44 15 80 80 0 01-44-12l-17-10c-22-13-44-38-70-22-8 6-18 12-28 12a50 50 0 01-22-6c-7-2-14-5-23-5h-4c-4 0-14 8-26 16-16 11-38 28-57 28h-4a60 60 0 01-40-27c-7-11-12-30 0-56a290 290 0 01 28-51c15-26 33-55 30-70-3-15-13-21-23-28-8-5-16-10-20-19-10-22-4-60 42-102 19-17 37-30 54-43a250 250 0 00 47-40c10-13 20-20 27-25l9-8v-1l-5-2c-7-2-16-5-20-14l1-16c10-19 57-40 88-40 33-1 90-5 108-12 14-5 54-34 43-53l-9-7c-26-12-48-5-74 1-15 3-29 8-44 8a50 50 0 01-35-15c-9-7-20-18-31-18a130 130 0 00-70 18l-17 10c-22 12-36 20-40 37v12c-3 18-6 40-33 48l-2 1c-62 18-77 28-80 32l-5 4c-10 10-27 25-26 50a160 160 0 01-17 79 120 120 0 01-12 23 88 88 0 00-13 55c1 35-12 56-26 76l-9 14-13 19c-8 10-16 20-20 31-8 16-10 36-8 41l4 4c5 0 15-10 25-19 10-8 15-14 22-14l12 7c6 10-1 25-12 44-4 10-10 19-12 27-18 50-18 68-16 75 1 4 4 8 18 8l19-1 20-2c26 0 45 13 54 36 4 10 0 21-2 30-3 12-4 20 1 30a60 60 0 00 18 19c7 5 15 11 22 25 3 6 4 17 5 34 3 30 7 60 18 60 17 0 30-31 43-60l11-24c27-54 50-80 72-85h9a50 50 0 01 20 4l10 3 8-2c10-5 22-13 34-21 14-11 30-22 45-27 5-2 13-3 23-3l28 1 25 1h7c26-2 34-13 47-32l8-11c16-22 14-47 5-54l-5-2"/><use xlink:href="#d"/><path d="m4543 1558-12-13c-11-1-17 21-21 30-10 15-20 30-25 46-10 30-28 83-42 105-7 13-12 33-15 50-3 13-2 26-2 39l-2 35c-11 10-30-25-34-30a230 230 0 01-20-49c-3-10-6-19-10-24-6-12-13-12-16-12h-10l-10 2c-23 0-31-20-38-38a230 230 0 01-10-36c-3-20-7-41-16-58-8-18-22-24-30-24h-7c-2 3-4 8-2 35v10a380 380 0 01-7 70c-2 6 0 28 2 52l3 50c-2 38-17 60-28 77l-5 8c-10 16-6 43-4 60 2 13 7 22 15 32l13 19c5 10 5 25 4 43 0 13 0 26 2 34 1 8 9 18 17 23 19 10 36-27 36-42 0-7-4-14-5-22l4-20 4-15c3-23-2-50-8-60-13-24-5-92-3-98l12-10c10 0 15 10 26 32v1l7 12c2 3 10 10 20 17 9 8 17 15 20 20l7 12 11 19 8 10c6 6 10 13 15 21l22 42c10 18 22 37 28 55 10 27 14 48 27 50 13 0 10-16 16-50l4-18c3-14 2-34 2-51 0-12-6-25-5-34s8-19 10-28c4-15 3-34 2-50 0-12 8-20 12-32l8-25c3-12 3-26 4-40v-22c2-13 3-34 8-57 10-40 24-90 24-121a70 70 0 00-6-32M4000 1830l-11-2-15-8-12-10-26 5c-10 3-20 5-28-1-13-10-9-31-6-44 4-20 10-38 20-55 12-20 19-43 24-60 6-23 10-39 28-39 33 0 47 36 43 63v8c-3 15-7 36 3 60 9 23 14 82-20 83m143 284-6-52-2-17c-1-16-3-33 0-54 5-74-5-104-22-127-14-18-17-46-20-70-2-15-3-29-7-36a280 280 0 01-22-80 921 921 0 01-2-23 340 340 0 00-15-87c-7-20-7-40-7-64 0-18 0-37-4-55l-9-20c-12-14-30 14-37 23-13 18-17 40-22 63-5 22-10 43-16 55-10 20-26 23-39 23h-10l-8 1c-7 3-18 19-27 47l-13 34c-6 14-14 30-18 45-3 15 4 33 8 47 8 29 15 56 7 72l-8 27c-7 23-15 55-30 89-10 24-13 32-21 46l-16 30c-17 31 5 70 14 85l2 4c5 10 4 24 3 40 0 15-2 34 4 40l10 4 10-10c5-19 15-34 25-48l12-20c4-7 4-8 0-18-3-4-5-10-7-17-8-27 13-52 28-69l2-3c10-10 10-17 11-29 1-10 2-23 10-40 0-1 27-68 56-68 8 0 12 4 17 10l20 17 10 7c18 14 34 55 40 80 2 11 8 28 13 45l6 20 3 12c4 11 6 24 14 34 8 10 12 20 16 33a140 140 0 00 20 40l10 6c8 0 19-12 20-30 2-10 0-24-3-42m633-116c-6 10-13 18-20 26l-6 5-10 13c-9 12-20 27-36 35l-20 5c-20 0-40-15-50-28-13-14-23-50-6-76 6-10 6-15 6-22 0-8 4-20 20-35 7-6 15-10 23-12 10-4 17-10 26-20l2-2c9-8 22-20 38-20l8 1c20 4 31 21 35 50a140 140 0 01-10 80m115 117c-8-28-20-54-27-72l-4-8a285 285 0 01-10-117v-20c0-8 0-18-2-29-2-20-4-44 0-72l18-75 16-58 8-26c8-29 2-43-10-60-18-23-13-55-8-80 4-25 10-48 15-60l7-20c5-15 10-29 12-41 0-10-2-20-12-24h-19c-20 8-28 30-35 48-8 18-20 35-21 54-2 17 0 36-5 52-8 22-17 40-19 63 0 11 0 21-4 30l-3 7c-6 15-12 33-24 53-5 10-10 34-14 55-6 33-10 54-19 64-14 16-33 21-50 34-10 8-16 20-28 25-8 4-30 19-39 35a120 120 0 01-40 43c-7 4-13 17-13 30-1 15-8 30-14 43-8 16-13 30-10 48 5 20 1 40 8 59 4 10 14 17 23 24 11 10 19 11 31 15l30 10 10 6c10 5 21 12 37 13h21l18-1c10-4 23-16 36-36l14-29c7-16 10-24 20-24h3c13 3 16 18 22 52l2 10 8 40c3 13 7 23 17 33 14 13 32 28 50 13 15-12 20-27 18-45a430 430 0 00-14-62"/></g><path d="M7682 1661h-1c-7 0-11-5-20-23l-4-10c-13-23-30-37-41-48l-16-17a40 40 0 01 5-30l8-7c16-3 36-10 50-46 10-30 21-43 40-55 10-6 17-7 26-7h42l22 1c13 4-6 14-10 17-30 20-44 34-45 52-2 17 2 34 5 50 2 11 5 23 5 34 0 40-52 85-66 89m229 810 15 1c22 0 42-15 47-36 2-9 1-20 0-32l-2-10c0-18-11-39-23-62a226 226 0 01-25-65c-1-10 0-31 1-54a490 490 0 00 0-94c-6-43-20-66-54-116-18-27-17-32-14-53l2-9c7-48-18-78-38-102l-7-8c-17-20-36-44-66-56-8-2-15-15-14-24 1-7 12-11 28-17l20-10 6-3c16-9 25-14 47-34 12-10 25-13 40-16 12-3 26-7 40-15 27-17 64-58 72-88 6-26 0-83-20-108l-11-14c-12-14-20-24-27-40a82 82 0 00-11-21l-14-16 5-16c7-10 15-24 13-40-4-27-34-53-58-60h-16c-8 0-15 0-23 2-8 1-16 3-26 3l-12-1c-17-2-30-9-40-16-10-5-20-10-30-11h-5c-26 0-50 20-64 40a240 240 0 01-22 27 206 206 0 00-35 43l-10 20c-4 6-10 27-14 10l-7-16c-5-7-5-36-6-57v-33c-2-19-4-54-26-72-7-6-17-10-27-10l-22 5c-20 8-30 29-28 55v11c2 20 4 38-2 61-7 28-5 54-5 68v6c0 5 0 18-7 50-3 14 0 28 4 40l4 19-1 42c-2 12-5 24-10 38-5 20-12 43-13 72-2 60 25 76 50 88l4 2c7 3 9 10 9 36 0 11-6 22-13 36a270 270 0 00-17 37c-10 29 3 54 13 74 5 10 10 20 11 27 2 15-1 30-6 48-3 11-6 23-8 37a140 140 0 00 4 60c2 10 4 20 4 28l-3 32c-3 19-6 40-3 62 3 24 25 36 46 36 14 0 26-5 34-13 24-24 23-72 23-110v-7c0-17 8-35 17-53 8-17 17-35 20-56 4-21 3-38 3-70l-1-53c0-10-2-18-3-26l-2-18c1-13 4-28 10-40 3-5 7-10 10 0 2 10 2 20 2 31v51l1 35c4 27 16 36 30 46l16 14c17 16 60 77 74 103 7 13 20 27 34 40l16 18c19 22 17 60 15 90a100 100 0 00 13 58l6 16c8 20 12 30 18 73 7 46 38 82 64 90M7100 1967h-14l-18-2-19 3-11 6c-14 2-10-20-13-26l-12-20-10-14c-16-28-34-43-54-43h-9c-5 0-17 0-23-30-6-35-10-83 0-103 7-18 18-29 30-40 10-10 20-20 28-35 5-10 6-22 4-52v-30c2-13 23-41 36-50l23-7c8 4-2 24-6 30-3 5-8 13-11 25-4 14-5 30-3 49 1 20 10 36 28 50l10 7c6 6 15 13 26 20 23 11 23 11 17 43l-1 6c-2 10-6 18-10 28-10 20-20 44-13 75a280 280 0 00 16 45l9 24c2 9 5 18 5 27l-4 13h-1zm220-155c-5-10-13-20-25-33a60 60 0 01-15-29c-3-12-2-26 10-54l9-17 11-26c12-23 10-54 10-74v-13c1-43-12-67-21-84l-5-7a70 70 0 01-4-20c-2-18-5-40-22-56l-14-15c-18-20-37-40-58-47a356 356 0 01-26-12c-17-8-29-14-59-20a150 150 0 00-25-1h-1c-47 0-82 24-100 38-21 20-67 72-80 100-7 14-14 17-25 23l-15 8-2 2c-20 13-41 27-60 60a220 220 0 00-22 73 160 160 0 01-9 37l-13 17c-13 16-32 38-36 75a100 100 0 00 24 75l8 11c14 25 22 73 18 101a530 530 0 00-2 127c3 30 26 53 53 53l10-1 13-2c17 0 28 10 40 18l11 7c12 8 25 12 35 14l17 6 2 7c5 13 14 34 41 42l13 2c18 0 37-9 51-14l12-5h6l14 1 19 3 17-2a330 330 0 00 131-100l8-11c12-16 18-25 37-44 17-17 53-68 57-106 3-38-4-60-31-97l-7-10zM9694 1500h-2c-5-6-14-10-24-10l-4-1c-12 0-23 6-40 15l-13 7-56 24-16 6a190 190 0 00-60 46l-21 19c-23 20-43 30-73 43-17 8-30 19-41 30-10 8-20 16-32 22l-24 7c-20 5-49 12-80 30-20 13-37 16-58 20l-33 9a87 87 0 00-59 47l-6 10-10 10 7-23c6-15 14-39 5-66a170 170 0 00-38-59l-8-10c-3-4-5-8-5-24 0-16-10-30-18-40l-10-13c-3-12-1-42 0-70l2-42c0-34-6-93-13-117-4-17-18-30-32-42a80 80 0 01-20-22c-2-2-5-12-8-20-4-12-8-26-14-40a1212 1212 0 00-29-74v-2a310 310 0 00-22-93c-6-12-10-27-16-43-7-22-15-45-26-65a290 290 0 01-18-35c-7-15-14-30-22-40l-2-3a26 26 0 00-20-10h-6a26 26 0 00-20 20l-1 3-2 11c-2 10 0 24 4 44l4 27c2 23 2 45 1 68l-1 38v19c-3 10-10 6-17 9l-12 12v1c-6 12-8 32-8 75 0 27 7 48 12 65 3 12 6 22 6 30 0 21 0 127 4 181 2 33 15 63 26 90 6 14 12 27 15 40a450 450 0 01 11 108 63 63 0 00 24 50c7 6 15 10 25 10 6 0 12-2 10 7l-8 39a460 460 0 01-20 70c-5 18-10 30-15 43v1l-15 44c-9 30-7 46-4 61l2 14v17l2 15-12 10-46 17-19 7-31 10c-48 12-81 23-90 48-10 28 11 40 25 46l-13 7-53 33a267 267 0 00-88 91c-10 24 3 43 12 60 6 7 10 15 11 22 0 4-9 22-60 70a730 730 0 01-39 33c-15 12-30 24-41 36a60 60 0 00-15 24c-3 10-2 18-12 23-10 5-27 13-46 28-19 15-30 36-40 54a130 130 0 01-20 29c-13 13-36 25-60 38l-45 24c-33 20-47 33-73 55l-11 10-30 27-2 1c-32 27-46 40-52 48-29 41-30 58-30 68l1 3a40 40 0 00 40 32h8c26-5 40-20 54-34l3-2 23-20c10-8 22-17 32-28l2-2c18-18 51-52 87-66 16-6 45-12 72-17 34-7 65-13 85-22a500 500 0 00 105-88l31-35c18-20 35-40 45-47l10-7c19-13 45-30 56-63 7-20 40-71 50-87 8-10 31-37 49-56l14-16 23-26c8-9 10-20 14-33 2-10 5-23 12-37 5-13 26-41 97-85l53-37 51-36c40-27 50-50 60-70l4-10c13-26 73-77 108-88l10-3c30-10 70-22 113-60 44-37 52-63 58-83l7-15a250 250 0 01 68-44c23-8 82-43 100-66 10-13 50-35 72-47l20-11a3000 3000 0 00 180-157l12-16v-2c5-10 2-24-7-31M6759 2717l-4-25-3-14-4-27-1-32a190 190 0 00-38-85l-7-12c-22-34-30-56-12-125 16-67 7-92-24-130-28-33-30-43-26-76l1-14v-2c4-34 8-64-3-88l-10-23a219 219 0 01-30-80c-1-23 7-40 17-61 9-16 18-35 24-60 16-63 11-97 3-124-7-27-8-30 0-62 13-59 15-90 6-110l-14-16c-8-7-16-15-20-40-1-10 0-22 2-33 1-11 3-22 2-33-1-8-6-15-8-22-3-8-1-16 0-24 0-15 1-36-2-57-5-30-16-58-26-83l-10-24c-5-13-5-42-5-73 0-36 0-75-4-116-7-56-29-134-40-172L6520 860a450 450 0 01 0-123V720a450 450 0 01 31-140l21-50c20-46 48-110 62-147a80 80 0 00-4-66c-10-17-22-21-29-22h-10c-22 7-50 35-62 67-10 29-19 38-45 70-8 12-16 20-22 27-16 17-28 30-34 50-3 10-5 26-7 46-4 30-8 72-22 104-10 26-34 57-56 85a380 380 0 00-35 52 940 940 0 00-50 160l-7 40c-2 18-4 30-8 39a480 480 0 00-30 100c-3 25-14 44-37 69l-7 8a212 212 0 00-62 110l-10 40-15 56c-4 16-6 40-7 76l-2 20v46a500 500 0 01 0 67 816 816 0 00-4 33 510 510 0 01-23 107l-3 10-3-10v-4c2-17 5-39-6-54a115 115 0 01-17-62l-4-42-6-56-3-21v-1l-2-26c-2-30 0-70 1-104 2-30 3-47 2-58a60 60 0 00-17-38l-13-10-12-8 1-26c1-18 2-40 1-56-2-27-12-40-22-53l-7-10c-10-12-6-56-3-87l3-26c4-56-8-71-36-94h-1c-17-15-17-20-17-50 0-32 10-96 25-133 7-20 44-116 46-154a50 50 0 00-13-38 50 50 0 00-35-16h-2l-14 5c-10 6-20 19-38 44l-15 21c-8 10-45 60-48 103-2 40-14 75-30 90a180 180 0 00-53 94c-2 10-2 20-5 30l-4 7-5 2-3-15-3-17v-3c-2-10-10-18-20-20h-6l-20 8-2 3-13 18 1-17 4-20v-5c1-12-5-23-15-27l-11-2-20 8-3 5a297 297 0 00-54 148v24l-1 24-10 38v1l-7 29-12 45-14 57c-5 22-14 49-24 77l-30 91a530 530 0 00-4 176l7 40c4 28 10 57 8 82a340 340 0 01-30 146 600 600 0 01-26 35c-20 26-43 55-55 83-17 40-13 97-10 130v4c0 20 8 39 16 60a370 370 0 01 20 59c10 52-5 116-12 147l-2 9c-5 21 4 43 10 63 4 9 8 18 8 24v39c-2 19-5 47-5 87-2 80 5 128 45 133h3l10-2c13-5 19-16 30-36l3-6c5-10 10-20 12-32 2-22 7-42 13-63l9-37a170 170 0 01 14-35c10-22 21-46 23-85 0-21-4-63-11-99l-7-26-4-12c-4-27 4-61 30-110 12-26 26-36 38-46 15-13 30-24 38-55 4-15 2-35 0-60-4-27-8-61-3-96l14-67c7-33 12-56 13-68v-11a1078 1078 0 01 25-162c6-30 12-55 13-76 0-27-6-55-13-82-4-22-10-41-10-58a580 580 0 01 35-163l3-8a200 200 0 01 14-36l13-14 3 16 1 22-3 56-3 50c4 44 44 74 50 78 10 7 15 25 18 40 4 17 19 27 32 36 11 7 21 14 26 24 5 9 12 40 19 99a260 260 0 00 28 103c4 8 8 14 11 23 15 34 20 58 20 82 0 24 8 44 14 60l6 16c2 8 0 20-2 34-3 22-8 50-1 80a70 70 0 00 60 57c15 1 28 10 33 14 3 4 5 25 6 40 2 34 5 76 26 112 10 18 23 30 40 36l16 3c22 0 39-14 45-35 4-12 4-30 3-60 0-31 0-70 6-100 7-30 21-60 34-85 7-14 14-27 18-40 8-20 9-57 10-96 0-30 1-63 5-87 4-19 19-38 36-60a290 290 0 00 57-90c25-72 22-90 10-135-8-35 1-84 12-141l3-10c4-22 10-63 16-63l1 30c0 50-1 73 12 93 4 6 11 13 22 23 18 18 40 39 44 58 3 17-4 36-13 60a400 400 0 00-17 58c-4 21-11 38-17 53-4 10-8 17-10 25-4 18-4 53 0 105 3 32 13 57 20 77 5 11 9 22 10 30 2 13 1 46 0 79v88c5 31 28 116 70 167l8 9c17 20 21 25 21 45 0 6-2 14-5 22-4 10-9 23-8 37l-3 17c-3 15-8 37-7 61 3 44 30 56 46 64l10 5v16c0 30 0 63 8 86 8 22 34 38 56 53 13 7 28 17 30 23 5 9 0 41-3 60-2 21-8 60 22 67h8c9 0 20-3 28-18l4 10 1 3c5 10 15 30 37 30l18-5c9-6 14-17 13-29 0-7-2-14-4-18l-1-4" fill="#034247"/><path d="M7975 1752c10 4 20 4 33 4h14c13 1 20 5 29 10 6 4 13 9 25 14l20 10c8 5 16 12 26 10 8-3 14-8 21-8 15 0 23 12 23 34 0 16-8 32-17 48l-10 25c-4 10-4 21-3 32v20l-8 18c-6 8-12 17-13 32a190 190 0 00 21 63l5 10c6 15 0 26-5 36-4 8-8 17-10 31-7 34 0 50 6 63l5 12c3 12 3 42 3 80v15c0 22-2 31-6 46l-4 18-6 27a550 550 0 00-10 116c3 30 10 47 15 56l7 8 8-22c3-21 11-43 18-63l10-27 4-16a230 230 0 00 11-60c0-24 3-47 6-72l8-87c2-55 13-72 24-85l3-6c7-13 10-30 11-53 0-20-3-36-5-49-2-10-4-19-3-27 0-10 4-18 8-28 5-11 10-24 13-41 3-22 0-46-2-67-3-23-5-40 0-54a36 36 0 01 36-25c14 0 30 6 41 16l6 5c15 13 24 20 40 20l21 2 20 1a50 50 0 00 23-4l17-4c17 0 33 11 47 20a120 120 0 00 72 26l18-6-11-13-1-18c4-6 10-9 22-13 23-8 35-15 33-25-3-12-20-20-29-24-9-5-19-8-30-10-9-2-19-1-28-2-15-3-25-10-33-22-6-8-24-19-49-22l-12-1c-22 0-38 10-47 16l-14 6-5-1c-10-4-10-15-8-24v-20c0-5-3-10-25-10l-16 1-26 4-30 3c-17 0-30-6-35-20-7-14 1-37 16-75l18-52 10-36c8-29 16-56 16-80 0-26 10-46 18-64 7-16 13-30 14-49 3-34-5-40-19-52l-7-7c-26-24-15-51-6-70l19-30c10-18 23-38 37-67 14-30 11-42 8-46l-20-8c-24 0-45 21-55 54-6 19-14 30-20 38l-10 18c-7 20-14 30-20 40-6 8-11 16-17 29-10 22-14 63-16 85l-1 14c-2 13-9 28-18 50l-7 17c-10 23-10 67-10 86v6c0 14-5 26-13 40l-10 22c-8 21-6 47-4 68v3a80 80 0 01-16 60c-10 10-24 11-38 11-10 0-20 0-30 3s-20 10-33 20c-9 8-20 10-30 10H7990c-10 0-20 0-25 7l-6 11 15 15zm-290-65h-4c-26 0-36-23-43-38l-4-7c-10-20-25-33-36-43-10-10-20-18-23-30-4-16-1-36 8-50 7-10 16-17 26-19 7-1 20-3 30-30a120 120 0 01 50-67 70 70 0 01 40-12h13l12 1h17c16 0 50 0 56 26 3 16-11 27-30 40-10 7-32 23-33 32-1 14 2 28 5 42 2 13 5 27 5 40 0 57-67 112-88 115m65 22 17-7 6-4c14-7 22-12 43-30 16-14 34-19 50-23a160 160 0 00 33-11 160 160 0 00 60-73c5-20-1-70-14-85l-11-13a150 150 0 01-31-48c-4-10-10-17-16-23-5-5-10-10-12-20-3-12 4-23 10-32 5-9 10-17 9-24-2-13-22-32-39-37h-10l-17 2c-9 1-19 3-30 3h-16a110 110 0 01-50-20l-20-8h-2c-13 0-30 12-42 30-7 10-16 19-25 29a223 223 0 00-32 38l-17 34c-17 36-23 46-33 48h-3l-10-4c-7-6-7-16-7-30 0-10 0-25-4-31-10-13-10-36-10-73l-2-31c0-16-3-43-16-54h-20c-12 4-14 17-13 28v10c3 21 5 43-3 70-6 24-4 48-3 60v8c0 10-3 30-8 56-3 14 8 35 8 52l-1 46c-2 15-6 28-10 42-6 20-12 40-12 66-2 46 17 55 34 63l5 2c23 12 23 35 23 60 0 18-7 32-15 48-6 10-11 20-16 34-6 18 3 35 12 54a95 95 0 01 13 34c3 20-1 39-6 58l-8 35c-3 20 0 35 4 51 2 10 4 21 4 33l-3 36c-3 18-6 36-3 54 1 10 13 14 20 14l15-5c16-16 16-60 16-92v-7c0-23 10-44 20-64 7-16 14-32 17-50 3-18 3-33 2-64V1890l-3-22c-1-8-3-17-2-24 2-29 16-84 55-68 22 10 18 53 20 71v72c2 16 8 20 20 30l19 15c20 20 64 84 78 110 5 9 18 22 30 34l17 19c26 30 23 76 21 109-1 20 4 30 10 45l8 18c9 23 13 35 19 78 6 38 32 64 45 68h8c10 0 19-6 21-15 2-5 0-16 0-23l-2-11c0-13-10-32-20-52a250 250 0 01-28-74 410 410 0 01 0-58c3-31 5-66 1-89-6-38-17-58-50-106-23-34-22-45-18-70l2-10c5-37-13-58-32-80-19-23-35-47-63-57a50 50 0 01-30-52c4-23 26-32 44-39m-637 282-16 4-15-1-15-1h-10c-4 2-18 10-27 10-18 0-24-15-27-30-2-15-6-20-12-28l-12-17c-10-19-21-30-30-30l-10 1c-18 0-40-9-48-51-3-14-15-85 0-120 10-22 24-36 37-48 10-10 18-17 23-27 2-6 2-23 1-40V1580c2-24 30-60 48-70a80 80 0 01 36-13l18 7c8 6 13 17 12 27-4 37-16 36-20 55-4 13-4 27-3 40 0 14 6 22 18 31l10 9c7 5 14 11 23 16 41 22 36 39 29 78-3 12-8 24-13 34-8 20-16 36-10 58 3 16 9 30 14 41l10 28c5 18 14 53-11 70m184-164c-6-9-11-18-22-29a80 80 0 01-21-40c-6-21-2-42 12-72l8-17 12-26c8-17 7-44 7-62v-14c0-37-10-56-18-70l-5-10c-4-7-5-17-7-27-2-15-4-30-14-41l-15-16c-16-17-33-35-49-40a340 340 0 01-28-13c-14-7-24-12-51-17l-22-2a130 130 0 00-82 32 440 440 0 00-75 92 65 65 0 01-36 34l-12 7-3 2a145 145 0 00-52 52c-10 17-15 42-18 64-3 18-6 33-11 43-4 8-10 15-17 23a104 104 0 00-30 60c-2 28 8 42 20 58l8 13A210 210 0 01 6800 1930c-5 25-6 84-2 119 2 17 13 30 27 30h5l18-3c25 0 42 13 56 23l10 6c8 6 18 8 27 10 10 4 20 6 27 12l10 17c5 13 10 23 23 27h6c12 0 29-6 40-12 9-3 15-6 20-6h10c8 0 14 0 20 2l12 2 10-2c40-10 101-67 117-89l8-11c11-17 20-27 40-48a200 200 0 00 48-90c3-29 0-44-26-78l-7-12zM9676 1520l-6-4c-12-3-22 5-32 10l-16 10-57 23-15 7c-23 9-38 24-54 40l-21 20a326 326 0 01-79 47c-14 7-24 16-35 25-12 10-23 20-38 27-9 3-18 6-30 8-19 5-44 12-72 28a180 180 0 01-66 23l-31 8c-26 7-33 20-43 35l-8 12c-12 18-48 49-64 49l-8-3c-11-8-5-20 4-34 5-10 12-20 14-30l5-19c5-14 11-30 5-48-7-22-21-38-32-50l-10-11c-8-12-10-23-10-41 0-7-7-16-13-24a73 73 0 01-14-22c-4-16-3-46-1-77l1-42c0-35-5-90-11-110-3-10-14-20-25-30-10-8-20-18-26-28l-10-25-12-38-14-35c-10-25-16-38-17-46v-2c-2-19-7-57-20-85-7-14-12-30-17-46-7-20-14-42-24-60l-20-37-9-20c-4-8-11-23-13-6-1 7 1 22 4 35l4 30c3 25 0 130-1 132-1 24-18 26-26 27h-4v1c-5 10-6 38-6 64 0 23 6 42 10 58 5 13 8 25 8 38 0 20 1 125 4 179 2 28 13 55 24 80 6 15 13 30 16 43 12 40 13 104 13 117 0 15 10 24 15 30l7 2h6l7-1c13 0 21 7 23 20a610 610 0 01-28 133l-16 43-15 43c-8 27-5 38-3 49 1 5 3 12 2 20l1 13c1 13 4 32-10 42-8 6-30 14-64 27l-18 7c-10 4-22 7-35 10-34 10-67 20-71 33-2 6-1 8 15 15 8 3 17 6 20 15l-4 16c-3 5-10 10-30 20l-53 33c-35 23-70 60-78 79-4 10 1 20 10 35a73 73 0 01 16 37c0 10-11 35-68 88a814 814 0 01-41 35c-15 12-30 24-40 34s-10 18-11 25l-6 18-16 10a140 140 0 00-41 25c-15 11-25 30-35 46-7 13-14 26-23 34a291 291 0 01-68 43l-43 23c-30 20-43 30-68 53l-12 10-30 27-3 1c-20 18-42 37-47 43-25 36-25 48-24 50 1 7 6 11 14 11h4c17-3 27-13 40-26l2-2 25-21 30-26 2-3c20-19 55-55 96-71 19-8 47-13 77-19a440 440 0 00 79-20 480 480 0 00 96-82 1699 1699 0 00 32-35c20-22 36-41 48-50l10-8c18-11 40-25 47-50a560 560 0 01 104-152l15-16 22-25c3-4 5-12 8-23 3-10 6-25 14-40 12-29 48-61 107-98l52-36 52-36a120 120 0 00 50-60l5-11c15-30 80-86 122-100l10-3c30-10 65-20 105-55 38-32 45-54 50-70l10-22c10-16 58-46 80-54a310 310 0 00 90-59 320 320 0 01 80-53l18-10 60-48A5470 5470 0 00 9670 1530l6-10zM6728 2695c-1-11-5-27-6-43l-2-30c-3-28-13-43-33-74l-7-12c-26-40-34-70-16-146 15-60 7-76-19-106-30-37-36-53-31-95l1-15v-2c4-30 7-57 0-75l-11-20a237 237 0 01-31-91c-3-30 7-52 19-75 8-16 16-32 21-54 15-58 10-87 4-110-9-32-10-40-1-76 4-18 17-74 8-93l-7-7a80 80 0 01-30-56 130 130 0 01 3-40c2-16 4-30-2-38-7-9-6-22-5-40 0-15 2-33 0-50-5-28-16-54-26-78l-10-25c-6-17-6-46-6-82 0-35 0-73-5-113a1310 1310 0 00-38-168l-3-13c-8-30-5-77-2-132l2-18c3-57 14-104 32-148l21-50c20-46 48-110 60-146 10-23 2-40 0-45l-10-8c-11 3-33 22-44 50a253 253 0 01-50 79l-23 27c-14 16-23 26-28 40-3 8-4 23-6 41-4 32-9 76-23 111-12 30-37 62-60 91a400 400 0 00-33 47 912 912 0 00-47 154l-7 40a130 130 0 01-10 44c-8 18-22 58-27 94-5 30-18 54-44 83l-8 8c-21 23-43 46-56 98l-10 41-15 56c-3 12-4 38-6 70l-1 21c-2 32 4 75-2 114a640 640 0 00-3 33c-2 15-3 30-6 44-4 24-10 47-18 70l-11 20a30 30 0 01-25 11c-10 0-18-10-20-19-3-10-2-20 0-28 0-13 3-30-3-37a140 140 0 01-22-75l-4-41-5-56-3-21c0-10-2-20-3-28-2-32 0-73 2-107 2-24 3-45 2-55-2-20-15-27-26-32l-15-15c-2-6-1-17 0-38 0-18 2-38 0-53 0-20-6-27-16-39l-8-10c-15-20-10-63-7-106l2-25c4-48-5-55-25-71l-1-1c-28-22-28-37-28-70 0-35 12-103 27-143a780 780 0 00 45-146l-6-18-16-7h-2c-6 4-18 20-30 38l-16 22c-15 18-40 58-43 88-2 36-13 84-38 107a150 150 0 00-45 80c-8 42-20 69-40 69l-7-1c-13-4-18-26-22-45l-3-18-7 8-12 17-12 15c-4 6-10 14-19 14l-7-1c-12-6-11-37-6-60l4-15 2-10v-10l-5 7-6 9-10 17-18 44c-6 18-8 37-10 60-2 10 0 38-2 50a480 480 0 01-10 40l-8 30-10 46-15 56c-5 23-15 50-25 80l-29 89a480 480 0 00-4 166l6 40a363 363 0 01-25 246c-6 10-16 22-27 36a380 380 0 00-51 77c-15 34-11 87-10 119v3c2 16 8 32 16 52a400 400 0 01 20 63c12 58-4 127-12 160l-2 8c-3 13 4 31 10 48 5 10 9 20 10 30 0 10 0 24-2 44l-4 85c-2 92 10 106 22 107 4-1 8-10 16-24l4-7 9-22c2-24 8-44 13-66v-1l10-35c3-16 9-29 15-42 10-20 20-40 20-74a497 497 0 00-16-116l-5-16c-5-33 4-72 32-125 15-31 32-45 45-56 14-10 23-18 30-41 2-10 0-28-2-50a388 388 0 01 12-171c6-27 11-54 12-65l1-12c2-23 5-58 11-96l14-69c6-28 11-53 12-71 1-23-5-50-11-76-5-22-10-43-11-62-1-44 13-92 36-171l3-8c15-52 31-76 52-76 10 0 20 7 24 19 10 24 6 70 3 110-2 19-3 37-2 46 2 26 25 50 37 58 18 12 25 35 30 56 1 7 10 14 20 20 13 9 28 18 36 34 7 15 15 55 20 108 6 51 15 70 27 94 4 7 8 15 11 24 17 39 23 66 22 94 0 18 7 34 13 49l7 20c3 13 0 27-2 44-3 21-7 45-2 70 5 22 18 34 39 37 20 2 37 13 47 20 10 11 12 31 14 59 2 30 5 70 22 100 8 12 16 20 26 24l9 2c9 0 16-6 19-17 2-8 2-30 2-52 0-32 0-73 6-105 8-35 23-65 36-92a410 410 0 00 18-37c6-17 7-53 7-87 1-32 2-65 6-91a170 170 0 01 42-72c19-23 40-49 52-83 23-68 20-80 10-120s0-92 12-152l2-10c14-72 30-108 50-108h4c15 2 15 20 14 64 0 32 0 80 9 94l18 20c21 20 47 44 52 71 4 24-5 48-14 73-6 18-13 35-16 55-5 24-13 43-20 59l-7 20c-2 9-5 33 0 97 3 28 12 50 19 70 5 12 10 24 10 36 3 14 2 45 2 83a780 780 0 00 0 84 360 360 0 00 64 154l7 8c18 22 27 33 28 62a90 90 0 01-8 30c-3 10-6 20-5 28 0 6-2 14-4 23-4 16-8 34-6 55 1 28 15 34 30 40 10 5 20 10 24 20 2 5 2 10 2 27-1 20-2 56 5 75 6 15 27 28 46 40 19 12 35 22 40 35 7 14 5 36 0 76-2 11-5 35 1 37l10-15c6-10 13-17 22-18h2c13 0 16 13 19 24l4 13c3 4 10 25 17 20l3-7-5-18a380 380 0 01-5-27" fill="#00b1ca"/><defs><path d="m1125 1587-40 8c-30 7-58 22-80 43-18 16-35 44-60 49H940c-13 0-23-9-33-19-12-10-24-20-38-20-19 0-30 10-40 18-9 8-17 15-30 15l-10-2a30 30 0 01-15-16c-7-19 0-48 10-68l6-10c5-10 13-22 7-33l-16-11-12-9c-10-10-15-23-15-37l2-18c2-24 6-60-12-73l-12-8c-12-7-25-16-30-30l-2-8c-4-12-8-25 0-37 5-8 7-18 8-27 0-9 1-20-3-28-6-9-15-13-18-24l-3-9-5-6-19-11c-10-12-10-30-11-44l-2-37v-34c0-7 6-15 6-22 0-8-7-13-12-19l-13-16a66 66 0 01-14-44v-6c3-22 7-62 35-70l11-1c8 0 17 0 28 3 11 2 23 4 35 4a70 70 0 00 30-6 260 260 0 00 51-37c24-20 47-40 70-40l10-1c15 0 27 2 40 4l34 4h7c10 0 20-1 28-3l19-2c9 0 16 2 22 8 4 4 7 10 10 20 8 18 20 48 40 58l14 3c10 0 20-5 30-10 9-4 18-8 28-8l10 2c16 6 50 52 45 77l-5 13c-4 10-7 14 3 26l35 38c28 28 45 45 47 60 4 22-18 28-27 43l-2 16 3 6c14 18 29 35 27 59v22c0 16 0 34-7 48-8 13-24 16-32 29-7 10-8 22-17 31l-13 8-9 10c-8 10-12 23-13 36-7 61-15 94-26 109a76 76 0 01-51 34m968 1345c3-12-1-34-10-55l-5-22a440 440 0 00-58-118l-3-5c-34-42-80-72-85-107l-2-25c-2-20-3-35-10-46-8-10-20-26-33-36l-21-10-8-2c-13-7-50-23-70-60l-4-10c-13-25-24-48-38-52-20-5-53-20-66-55l-10-33a200 200 0 00-28-72 220 220 0 00-55-45 110 110 0 01-20-15c-6-8-13-24-21-44-18-40-37-82-77-106-10-6-22-10-34-10-10 2-18 6-26 9-10 3-23 6-30-3-9-8-13-20-18-30a300 300 0 00-13-26l-15-19h-8l-10 13-16 9h-4c-7-3-11-9-34-53-9-16-16-32-26-47-8-12-20-32-36-34l-18 3-20-8-8-13-10-10c-18-19 12-40 26-47 13-8 28-14 39-25 10-10 16-26 23-40 9-17 20-28 38-34 15-6 30-7 47-10 10 0 20-2 28-6 9-4 16-10 23-17 34-34 48-82 55-129 2-13 4-23 7-29l16-14c10-6 20-12 25-36 4-15 3-28 1-41 0-16-2-31 5-45 3-7 10-14 17-22 17-20 40-45 42-88 0-22-2-40-4-59-3-25-6-50 2-76 5-20 10-40 10-60 0-22-7-40-24-54h-2c-11-10-24-21-28-40-2-7-1-20 0-45 3-30 7-70 0-96-3-16-18-30-30-38a56 56 0 00-29-12c-24-2-44 17-69 17-32 0-41-20-44-32l-2-20c-2-10-2-20-5-30l-6-15-17-3c-7 0-17 0-24 2l-29 2c-12 0-22-2-30-6-14-6-27-15-40-24-17-11-32-21-46-26-20-8-40-18-60-28-23-12-45-28-70-37-26-10-53-10-80-9-14 0-27 2-40 6-19 5-31 17-46 27l-48 36-26 21C714 640 670 670 627 670h-14c-17-3-33-7-50-12-8-3-15-5-24-4l-21 6a310 310 0 00-44 24l-20 15-18 17c-25 27-36 37-46 37-9 0-16-3-24-7l-20-7-8 6c-10 14-10 35-8 51a70 70 0 00 17 44l24 23c21 18 34 30 37 75 2 25-5 50-11 76-10 36-19 74-5 110 10 25 30 47 50 68 29 29 58 60 58 103 0 33-8 63-14 84l-6 24c0 14 3 20 7 26l8 17-2 18c-2 9-3 16 2 25 15 24 20 45 19 69l-3 16c-4 20-7 38 10 62 8 13 16 22 24 31 14 17 26 30 30 54 0 10-2 20-4 30a80 80 0 00 0 50l8 20c16 41 42 110 44 170a230 230 0 01-22 106c-4 8-6 16-2 25 3 9 10 16 15 23 8 10 19 23 27 41 20 42 30 74 20 103a120 120 0 01-12 23c-8 12-15 23-15 55 0 38 0 56 17 82 20 28 25 44 31 70a94 94 0 00 13 28l10 11c11 9 17 17 18 31 1 16 0 31 3 46 6 27-2 53-3 80v10l20 15c17 13 40 29 42 53v35c-2 20-3 42 3 59l12 20 15 16c13 7 19-14 19-23a696 696 0 00-4-60c0-14-5-27-2-40 3-15 15-25 25-35 9-10 20-21 27-32 20-30 10-44 0-58l-7-10a130 130 0 01-16-55 140 140 0 01 0-38c6-30 27-58 19-88-4-12-12-22-20-32l-20-32c-10-15-18-30-21-47V2350c2-18 10-33 18-48 10-21 22-43 20-73-1-22-10-38-16-52-7-14-14-26-10-40 3-19 19-36 16-56 0-10-5-17-10-25-13-29-33-69-24-100 10-33 41-50 56-50 14 0 28 13 52 37 17 17 37 37 53 44l18 3c9 0 18-2 26-3l23-3 15 3c33 15 74 85 80 100a95 95 0 00 25 34l8 3 7-3c15-10 25-27 45-27h2c19 0 34 16 47 28l15 13 17 2c12 0 27 0 39 10 17 15 51 83 56 105 8 38 21 38 27 38l10-2 23-9a100 100 0 01 36-10c8 0 14 2 20 6 14 10 32 46 56 100l5 10c9 18 34 42 55 45l12 2c17 1 33 3 50 31l10 20a290 290 0 00 50 80c10 10 24 20 40 29l23 14 5 3c14 10 28 19 40 32a68 68 0 01 10 22c4 10 0 20 0 30-3 24 12 51 24 71 5 10 60 84 64 91 8 18 13 28 28 36 27 14 56 16 78 52l10 17c5 10 10 19 17 27l11 10c12 2 0-32 0-35a94 94 0 01-4-30" id="a"/><path d="m1707 1174 15 6c11 4 16 10 20 16 10 13 17 24 35 24 23 0 49-9 49-75 0-32 6-50 11-68l5-15c3-12 4-30-3-40-10-15-20 0-34 0l-12-3c-17-8-15-30-12-47 0-8 2-17 1-24-1-20-5-25-25-27h-3a50 50 0 00-46 37c-3 10 0 20 8 32 5 10 10 21 10 34-2 11-10 25-20 44a210 210 0 00-24 58 48 48 0 00 25 48" id="b"/><path d="M1846 1638c-1-23 6-50 13-77l10-42c7-34-1-53-10-74l-4-7c-8-20-5-36-2-50l3-18c0-5 0-16-20-16l-14 2c-10 2-17 15-27 20-16 8-32 4-47-3l-6-2c-10 2-5 34-3 40 3 13 10 25 10 38-1 15-7 33-11 50l-8 33c0 8 6 11 16 16 7 4 14 8 18 16 10 17 3 59-5 78l-7 13c-9 20-25 52-25 75 0 16 14 30 26 43l16 21c10 20 3 85-2 122-4 26 0 40 8 57s5 33 3 48l-2 14c-1 10 6 21 13 34l11 22c6 14 4 45 2 95-2 25-3 48-2 60 2 31 20 52 31 53h2c7 0 10-8 14-26l1-6c4-16 3-26 2-50l-2-40c-2-50 6-70 16-90l5-11c19-46 29-83 27-100-2-17-10-32-16-46a150 150 0 01-15-39c-5-28 16-59 34-84 9-13 16-23 17-28 2-22-7-38-27-48-36-18-40-54-43-93" id="c"/><path d="M3500 1167a90 90 0 00-34 7c-20 7-99 55-120 73l-23 22c-20 19-40 37-55 47-10 6-15 11-24 20-7 9-16 19-31 33-18 16-30 22-45 22h-20c-15 4-30 10-59 40a208 208 0 01-94 56c-10 3-19 11-28 19l-6 5c-10 9-20 15-22 16l-6 1-6-2-5-11c2-16 0-32-3-44l-1-10c-2-10-3-17-3-28 0-11 5-21 10-32 8-14 16-30 17-56 3-46-1-52-10-61-8-10-8-24-8-43V1210a100 100 0 00-10-32l-5-17c-2-9 2-20 8-40 10-25 30-64 29-101-1-55-8-65-22-69h-3c-8 0-17 9-25 17v1c-9 8-13 20-30 24-14 3-20-10-32-16l-15-2-6 8c-10 25 0 48 3 74l3 47c3 40 2 80-5 120l-4 19-15 79c-9 35-20 69-30 97l-9 29c-7 24-9 46-10 66-2 20-3 36-10 48-13 22-34 70-40 110a30 30 0 00 7 25l10 6 7-4 10-10v-2l29-32 8-10c14-16 26-29 40-29l10 3c24 14 10 70 0 94a60 60 0 00-4 33c0 10 1 20-3 33l-6 30c-4 33-8 50-15 57-7 6-16 24-16 40l7 12c6 7 13 16 15 32a980 980 0 01-18 132c-4 15-7 35-10 54-3 26-5 48-11 60-9 17-27 73-31 108-4 27 0 40 6 43a30 30 0 01 12 23l7 17c7 0 12-24 15-28 7-9 12-18 16-28l7-26c2-13 5-25 14-38 10-16 26-58 34-103l13-73 20-107c4-20 14-30 27-30 10 0 18 8 27 5 9-2 16-16 21-23a34 34 0 01 37-12c17 5 24 18 30 34 3 10 8 30 15 32 27 7 33 27 65 89 19 35 23 62 26 85l6 30c6 20 20 33 34 45l20 20c23 27 34 63 43 92l10 30c9 20 26 44 39 63l14 20c9 15 15 48 20 81l1 2c1 6 5 13 10 20 6 12 7 35 10 52v10c0 14 0 30 5 35l10 4a14 14 0 00 13-13c2-10 4-41 0-58a150 150 0 01-3-37c1-12 10-14 13-14 10 0 12 7 17 22a89 89 0 00 21 35l8 6c20 9 4-64 2-70-2-10-10-30-18-54-13-36-31-85-43-132a940 940 0 01-20-112c-2-17-4-32-8-49-4-24-15-39-27-56-8-12-17-25-25-42a140 140 0 01-12-53 82 82 0 00-12-44c-10-17-30-20-50-24a120 120 0 01-44-15c-20-13-30-30-44-49a400 400 0 00-24-33 350 350 0 01-55-79l-3-10-6-15a138 138 0 01-34-50c-12-33 12-67 23-80 8-10 22-13 39-17 11-3 23-6 32-10l4-3c24-12 75-37 93-56 7-7 20-26 24-39 10-32 20-60 34-84 13-24 39-38 65-53l35-20c36-24 42-33 60-68a94 94 0 01 33-40l16-15c7-10 20-20 34-30 10-9 33-15 36-30 0-9-8-10-14-10" id="d"/></defs></svg>
