<?xml version="1.0" standalone="no"?><svg xmlns="http://www.w3.org/2000/svg" viewBox="0 0 1440 320"><path fill="#2D4C4E" fill-opacity="1" d="M0,320L0,288L36.9,288L36.9,96L73.8,96L73.8,128L110.8,128L110.8,192L147.7,192L147.7,288L184.6,288L184.6,128L221.5,128L221.5,192L258.5,192L258.5,32L295.4,32L295.4,64L332.3,64L332.3,32L369.2,32L369.2,288L406.2,288L406.2,32L443.1,32L443.1,224L480,224L480,32L516.9,32L516.9,96L553.8,96L553.8,96L590.8,96L590.8,64L627.7,64L627.7,32L664.6,32L664.6,256L701.5,256L701.5,96L738.5,96L738.5,256L775.4,256L775.4,192L812.3,192L812.3,96L849.2,96L849.2,64L886.2,64L886.2,32L923.1,32L923.1,64L960,64L960,288L996.9,288L996.9,96L1033.8,96L1033.8,160L1070.8,160L1070.8,160L1107.7,160L1107.7,224L1144.6,224L1144.6,224L1181.5,224L1181.5,32L1218.5,32L1218.5,128L1255.4,128L1255.4,160L1292.3,160L1292.3,192L1329.2,192L1329.2,256L1366.2,256L1366.2,32L1403.1,32L1403.1,96L1440,96L1440,320L1403.1,320L1403.1,320L1366.2,320L1366.2,320L1329.2,320L1329.2,320L1292.3,320L1292.3,320L1255.4,320L1255.4,320L1218.5,320L1218.5,320L1181.5,320L1181.5,320L1144.6,320L1144.6,320L1107.7,320L1107.7,320L1070.8,320L1070.8,320L1033.8,320L1033.8,320L996.9,320L996.9,320L960,320L960,320L923.1,320L923.1,320L886.2,320L886.2,320L849.2,320L849.2,320L812.3,320L812.3,320L775.4,320L775.4,320L738.5,320L738.5,320L701.5,320L701.5,320L664.6,320L664.6,320L627.7,320L627.7,320L590.8,320L590.8,320L553.8,320L553.8,320L516.9,320L516.9,320L480,320L480,320L443.1,320L443.1,320L406.2,320L406.2,320L369.2,320L369.2,320L332.3,320L332.3,320L295.4,320L295.4,320L258.5,320L258.5,320L221.5,320L221.5,320L184.6,320L184.6,320L147.7,320L147.7,320L110.8,320L110.8,320L73.8,320L73.8,320L36.9,320L36.9,320L0,320L0,320Z"></path></svg>