<?xml version="1.0" standalone="no"?><svg xmlns="http://www.w3.org/2000/svg" viewBox="0 0 1440 320"><path fill="#2D4C4E" fill-opacity="1" d="M0,320L0,288L36.9,288L36.9,96L73.8,96L73.8,128L110.8,128L110.8,192L147.7,192L147.7,288L184.6,288L184.6,128L221.5,128L221.5,192L258.5,192L258.5,32L295.4,32L295.4,64L332.3,64L332.3,32L369.2,32L369.2,288L406.2,288L406.2,32L443.1,32L443.1,224L480,224L480,32L516.9,32L516.9,96L553.8,96L553.8,96L590.8,96L590.8,64L627.7,64L627.7,32L664.6,32L664.6,256L701.5,256L701.5,96L738.5,96L738.5,256L775.4,256L775.4,192L812.3,192L812.3,96L849.2,96L849.2,64L886.2,64L886.2,32L923.1,32L923.1,64L960,64L960,288L996.9,288L996.9,96L1033.8,96L1033.8,160L1070.8,160L1070.8,160L1107.7,160L1107.7,224L1144.6,224L1144.6,224L1181.5,224L1181.5,32L1218.5,32L1218.5,128L1255.4,128L1255.4,160L1292.3,160L1292.3,192L1329.2,192L1329.2,256L1366.2,256L1366.2,32L1403.1,32L1403.1,96L1440,96L1440,0L1403.1,0L1403.1,0L1366.2,0L1366.2,0L1329.2,0L1329.2,0L1292.3,0L1292.3,0L1255.4,0L1255.4,0L1218.5,0L1218.5,0L1181.5,0L1181.5,0L1144.6,0L1144.6,0L1107.7,0L1107.7,0L1070.8,0L1070.8,0L1033.8,0L1033.8,0L996.9,0L996.9,0L960,0L960,0L923.1,0L923.1,0L886.2,0L886.2,0L849.2,0L849.2,0L812.3,0L812.3,0L775.4,0L775.4,0L738.5,0L738.5,0L701.5,0L701.5,0L664.6,0L664.6,0L627.7,0L627.7,0L590.8,0L590.8,0L553.8,0L553.8,0L516.9,0L516.9,0L480,0L480,0L443.1,0L443.1,0L406.2,0L406.2,0L369.2,0L369.2,0L332.3,0L332.3,0L295.4,0L295.4,0L258.5,0L258.5,0L221.5,0L221.5,0L184.6,0L184.6,0L147.7,0L147.7,0L110.8,0L110.8,0L73.8,0L73.8,0L36.9,0L36.9,0L0,0L0,0Z"></path></svg>