<?xml version="1.0" standalone="no"?><svg xmlns="http://www.w3.org/2000/svg" viewBox="0 0 1440 320"><path fill="#4B7F83" fill-opacity="1" d="M0,192L0,32L102.9,32L102.9,128L205.7,128L205.7,96L308.6,96L308.6,192L411.4,192L411.4,64L514.3,64L514.3,128L617.1,128L617.1,192L720,192L720,160L822.9,160L822.9,192L925.7,192L925.7,224L1028.6,224L1028.6,288L1131.4,288L1131.4,128L1234.3,128L1234.3,256L1337.1,256L1337.1,128L1440,128L1440,0L1337.1,0L1337.1,0L1234.3,0L1234.3,0L1131.4,0L1131.4,0L1028.6,0L1028.6,0L925.7,0L925.7,0L822.9,0L822.9,0L720,0L720,0L617.1,0L617.1,0L514.3,0L514.3,0L411.4,0L411.4,0L308.6,0L308.6,0L205.7,0L205.7,0L102.9,0L102.9,0L0,0L0,0Z"></path></svg>