<?xml version="1.0" standalone="no"?><svg xmlns="http://www.w3.org/2000/svg" viewBox="0 0 1440 320"><path fill="#4B7F83" fill-opacity="1" d="M0,192L0,32L102.9,32L102.9,128L205.7,128L205.7,96L308.6,96L308.6,192L411.4,192L411.4,64L514.3,64L514.3,128L617.1,128L617.1,192L720,192L720,160L822.9,160L822.9,192L925.7,192L925.7,224L1028.6,224L1028.6,288L1131.4,288L1131.4,128L1234.3,128L1234.3,256L1337.1,256L1337.1,128L1440,128L1440,320L1337.1,320L1337.1,320L1234.3,320L1234.3,320L1131.4,320L1131.4,320L1028.6,320L1028.6,320L925.7,320L925.7,320L822.9,320L822.9,320L720,320L720,320L617.1,320L617.1,320L514.3,320L514.3,320L411.4,320L411.4,320L308.6,320L308.6,320L205.7,320L205.7,320L102.9,320L102.9,320L0,320L0,320Z"></path></svg>