<svg xmlns="http://www.w3.org/2000/svg" xml:space="preserve" version="1.1" viewBox="0 0 98 26"><path d="M59.4 5c.6 0 1.1.5 1.1 1.1v14.3c0 .6-.5 1.1-1.1 1.1-.4 0-.7-.2-.9-.4l-5.7-5.7 1-1c.2-.1.3-.2.5-.2s.4.1.6.2l3.3 3.3V6c.1-.5.6-1 1.2-1zM45.1 5c.6 0 1.1.5 1.1 1.1v11.7l5.3-5.3c.2-.2.5-.3.8-.3.2 0 .5.1.7.2l1 1c-.2.1-.5.2-.7.4l-7.5 7.5c-.2.2-.4.2-.7.2-.6 0-1.1-.5-1.1-1.1V6.1c0-.6.5-1.1 1.1-1.1zm20.7 6.9c-.2.3-.3.6-.3.9v7.6c0 .6-.5 1.1-1.1 1.1s-1.1-.5-1.1-1.1v-6.3c0-1.2 1-2.2 2.2-2.2h.3zm27.1.3h.1c2.6 0 4.7 2.1 4.7 4.7s-2.1 4.7-4.7 4.7H82.3c-.6 0-1.1-.5-1.1-1.1s.5-1.1 1.1-1.1H93c1.4 0 2.5-1.1 2.5-2.4v-.2c0-2.1-1.1-3.7-2.6-4.6zM96.6 5c.6 0 1.1.5 1.1 1.1s-.5 1.1-1.1 1.1H85.9c-1.4 0-2.5 1.1-2.5 2.4 0 1.4 1.1 2.5 2.4 2.5h4.4c1.7.1 3.1 1 3.9 2.5-.3-.2-.7-.2-1-.3h-7.2c-2.6 0-4.7-2.1-4.7-4.7S83.3 5 85.9 5h10.7zM75.3 5c2.5 0 4.5 2 4.5 4.5s-2 4.5-4.5 4.5h-9v-1.1c0-.6.4-1 1-1.1h8c1.3 0 2.3-1 2.3-2.3s-1-2.3-2.3-2.3H64.4c-.6 0-1.1-.5-1.1-1.1S63.8 5 64.4 5h10.9z" fill="#3a3a3a" fill-rule="evenodd" clip-rule="evenodd"/><g transform="translate(.026)"><linearGradient id="a" x1="-1119.6" x2="-1119.6" y1="590.42" y2="591.41" gradientTransform="matrix(38.43 0 0 -25.945 43045 15344)" gradientUnits="userSpaceOnUse"><stop offset="0" stop-color="#FF5100"/><stop offset="1" stop-color="#FF1522"/></linearGradient><path d="m23.2 24.2-3.1-6.4 2.6-5.5 3 6.2 6.2-13c.1-.3 0-.7-.3-.8-.1 0-.2-.1-.3-.1h-6.8l-9.4 19.6c-.6 1.4-2.2 2-3.6 1.5-.7-.3-1.2-.8-1.5-1.4v-.1L.2 3.5C-.4 2.3.2.8 1.4.2c.4-.1.8-.2 1.1-.2h11.8c1.5 0 2.8.8 3.5 2.1l.5 1-2.6 5.5-1.6-3.3c-.2-.4-.7-.7-1.1-.7H7c-.3 0-.6.3-.6.6 0 .1 0 .2.1.3l6.2 13L19.2 5l1.4-2.8C21.2.8 22.5 0 24 0h11.9c1.4 0 2.5 1.1 2.5 2.5 0 .4-.1.7-.2 1.1l-9.9 20.7c-.6 1.4-2.2 2.1-3.6 1.5-.7-.3-1.2-.8-1.5-1.6z" fill="url(#a)" fill-rule="evenodd" clip-rule="evenodd"/><linearGradient id="b" x1="-1062.5" x2="-1062.5" y1="562.25" y2="563.02" gradientTransform="matrix(13.208 0 0 -11.502 14056 6476.2)" gradientUnits="userSpaceOnUse"><stop offset="0" stop-color="#FD7821" stop-opacity="0"/><stop offset=".489" stop-color="#FF5100"/><stop offset="1" stop-color="#FF9B27"/></linearGradient><path d="M21.3 11.5H16l.5-1L19.2 5l1.4-2.8C21.2.8 22.5 0 24 0h5.3-.2c-1.4.1-2.7.9-3.2 2.1L21.6 11l-.3.5z" fill="url(#b)" fill-rule="evenodd" clip-rule="evenodd"/><linearGradient id="c" x1="-1066" x2="-1066.5" y1="562.63" y2="563.16" gradientTransform="matrix(13.805 0 0 -11.545 14751 6502.7)" gradientUnits="userSpaceOnUse"><stop offset="0" stop-color="#FD7821" stop-opacity="0"/><stop offset="1" stop-color="#881000" stop-opacity=".924"/></linearGradient><path d="M35.9 0c1.4 0 2.5 1.1 2.5 2.5 0 .4-.1.7-.2 1.1l-3.8 8-5-.5L32 5.6c.1-.3 0-.7-.3-.8-.1 0-.2-.1-.3-.1h-6.8l1.2-2.5C26.4.9 27.7 0 29.2 0h6.7z" fill="url(#c)" fill-rule="evenodd" clip-rule="evenodd"/></g></svg>