<svg xmlns="http://www.w3.org/2000/svg" xmlns:xlink="http://www.w3.org/1999/xlink" width="48" height="36" fill="none" xmlns:v="https://vecta.io/nano"><style><![CDATA[.E{color-interpolation-filters:sRGB}.F{flood-opacity:0}]]></style><path d="M0 7h16V0H2C.9 0 0 .9 0 2z" fill="#ccc"/><path d="M32 0H16v7h16z" fill="#999"/><path d="M48 7H32V0h14c1.1 0 2 .9 2 2z" fill="#666"/><path d="M46 36H2c-1.1 0-2-.9-2-2V6h48v28c0 1.1-.9 2-2 2z" fill="url(#E)"/><g filter="url(#B)" transform="translate(0 -6)"><path d="M15.2 24.3l-8.8 8.8c-.5.5-.5 1.2 0 1.6l1.8 1.8c.5.5 1.2.5 1.6 0l8.8-8.8c.5-.5.5-1.2 0-1.6l-1.8-1.8c-.4-.4-1.2-.4-1.6 0z" fill="url(#F)"/><mask id="A" mask-type="alpha" maskUnits="userSpaceOnUse" x="6" y="24" width="13" height="13"><path d="M15.2 24.3l-8.8 8.8c-.5.5-.5 1.2 0 1.6l1.8 1.8c.5.5 1.2.5 1.6 0l8.8-8.8c.5-.5.5-1.2 0-1.6l-1.8-1.8c-.4-.4-1.2-.4-1.6 0z" fill="url(#F)"/></mask><g mask="url(#A)"><g filter="url(#C)"><use xlink:href="#I" fill="url(#G)"/></g></g><use xlink:href="#I" fill="url(#G)"/></g><g filter="url(#D)" transform="translate(0 -6)"><path d="M40 32H24a.94.94 0 0 0-1 1v3a.94.94 0 0 0 1 1h16a.94.94 0 0 0 1-1v-3a.94.94 0 0 0-1-1z" fill="url(#H)"/></g><defs><filter id="B" x="3.025" y="15" width="18.95" height="25.875" filterUnits="userSpaceOnUse" class="E"><feFlood result="C" class="F"/><feColorMatrix in="SourceAlpha" values="0 0 0 0 0 0 0 0 0 0 0 0 0 0 0 0 0 0 127 0"/><feOffset dy="0.5"/><feGaussianBlur stdDeviation=".5"/><feColorMatrix values="0 0 0 0 0 0 0 0 0 0 0 0 0 0 0 0 0 0 0.1 0"/><feBlend in2="C" result="D"/><feColorMatrix in="SourceAlpha" values="0 0 0 0 0 0 0 0 0 0 0 0 0 0 0 0 0 0 127 0"/><feOffset dy="1"/><feGaussianBlur stdDeviation="1.5"/><feColorMatrix values="0 0 0 0 0 0 0 0 0 0 0 0 0 0 0 0 0 0 0.2 0"/><feBlend in2="D"/><feBlend in="SourceGraphic"/></filter><filter id="C" x="3.025" y="15" width="18.95" height="18.875" filterUnits="userSpaceOnUse" class="E"><feFlood result="C" class="F"/><feColorMatrix in="SourceAlpha" values="0 0 0 0 0 0 0 0 0 0 0 0 0 0 0 0 0 0 127 0"/><feOffset dy="0.5"/><feGaussianBlur stdDeviation=".5"/><feColorMatrix values="0 0 0 0 0 0 0 0 0 0 0 0 0 0 0 0 0 0 0.1 0"/><feBlend in2="C" result="D"/><feColorMatrix in="SourceAlpha" values="0 0 0 0 0 0 0 0 0 0 0 0 0 0 0 0 0 0 127 0"/><feOffset dy="1"/><feGaussianBlur stdDeviation="1.5"/><feColorMatrix values="0 0 0 0 0 0 0 0 0 0 0 0 0 0 0 0 0 0 0.2 0"/><feBlend in2="D"/><feBlend in="SourceGraphic"/></filter><filter id="D" x="20" y="30" width="24" height="11" filterUnits="userSpaceOnUse" class="E"><feFlood result="C" class="F"/><feColorMatrix in="SourceAlpha" values="0 0 0 0 0 0 0 0 0 0 0 0 0 0 0 0 0 0 127 0"/><feOffset dy="0.5"/><feGaussianBlur stdDeviation=".5"/><feColorMatrix values="0 0 0 0 0 0 0 0 0 0 0 0 0 0 0 0 0 0 0.1 0"/><feBlend in2="C" result="D"/><feColorMatrix in="SourceAlpha" values="0 0 0 0 0 0 0 0 0 0 0 0 0 0 0 0 0 0 127 0"/><feOffset dy="1"/><feGaussianBlur stdDeviation="1.5"/><feColorMatrix values="0 0 0 0 0 0 0 0 0 0 0 0 0 0 0 0 0 0 0.2 0"/><feBlend in2="D"/><feBlend in="SourceGraphic"/></filter><linearGradient id="E" x1="36.446" y1="41.826" x2="11.822" y2="-.825" gradientUnits="userSpaceOnUse"><stop stop-color="#333"/><stop offset="1" stop-color="#4d4d4d"/></linearGradient><linearGradient id="F" x1="14.528" y1="33.996" x2="10.484" y2="26.992" gradientUnits="userSpaceOnUse"><stop stop-color="#999"/><stop offset="1" stop-color="#b3b3b3"/></linearGradient><linearGradient id="G" x1="16.275" y1="30.034" x2="8.737" y2="16.978" gradientUnits="userSpaceOnUse"><stop stop-color="#ccc"/><stop offset="1" stop-color="#e6e6e6"/></linearGradient><linearGradient id="H" x1="35.15" y1="39.955" x2="28.85" y2="29.045" gradientUnits="userSpaceOnUse"><stop stop-color="#ccc"/><stop offset="1" stop-color="#e6e6e6"/></linearGradient><path id="I" d="M9.8 17.3l8.8 8.8c.5.5.5 1.2 0 1.6l-1.8 1.8c-.5.5-1.2.5-1.6 0l-8.8-8.8c-.5-.5-.5-1.2 0-1.6l1.8-1.8c.4-.4 1.2-.4 1.6 0z"/></defs></svg>