<svg xmlns="http://www.w3.org/2000/svg" width="822" height="754" viewBox="-66 148 822 754" xmlns:v="https://vecta.io/nano"><defs><linearGradient id="A" x1="1181.777" y1="329.058" x2="1280.949" y2="329.058" gradientUnits="userSpaceOnUse"><stop offset="0" stop-color="#fff"/><stop offset="1" stop-color="#fff" stop-opacity="0"/></linearGradient><linearGradient id="B" gradientTransform="matrix(14.74095,0,0,-16.603731,724.66737,964.95276)" x1="35.997" y1="40.458" x2="33.665" y2="37.771" gradientUnits="userSpaceOnUse"><stop offset="0" stop-color="#2e3436"/><stop offset="1" stop-color="#babdb6"/></linearGradient><linearGradient id="C" gradientTransform="matrix(18.061451,0,0,-17.374519,609.45182,1005.4709)" x1="22.308" y1="18.992" x2="35.785" y2="39.498" gradientUnits="userSpaceOnUse"><stop offset="0" stop-color="#eeeeec"/><stop offset=".599" stop-color="#eeeeec"/><stop offset=".828" stop-color="#fff"/><stop offset="1" stop-color="#d3d7cf"/></linearGradient></defs><g transform="matrix(1.105653 0 0 1.105653 -710.03876 -111.7333)"><g fill-rule="evenodd"><path d="M790.217 891.916h505.277c5.343 0 9.645-4.445 9.645-9.966V404.813c0-43.494-116.431-145.826-156.847-145.826H790.217c-5.343 0-9.645 4.445-9.645 9.966v612.996c0 5.521 4.302 9.966 9.645 9.966h0z" fill="url(#C)" stroke="#888a85" stroke-width="17.24"/><path d="M824.544 493.229h371.887v35.418H824.544zm0 67.912h354.041v35.418H824.544zm.487 70.954h318.348v35.418H825.031zm.37 73.642h371.887v35.418H825.401z" opacity=".17"/><path d="M1167.767 259.235c29.93-5.478 141.348 75.214 136.861 141.096-23.044-40.232-70.145-21.365-130.712-24.005 0 0 5.828-108.789-6.149-117.091h0z" fill="url(#B)" stroke="#888a85" stroke-width="15.645"/></g><path d="m 1189.1476,295.6222 c 20.1919,11.35412 65.2766,35.63934 84.4308,66.87102 -23.528,-11.29145 -43.4536,-3.47842 -84.0579,-3.16143 0,0 2.3928,-50.84219 -0.3729,-63.70959 z" opacity=".369" fill="none" stroke="url(#A)" stroke-width="15.645"/><g stroke-linejoin="round"><path d="M604.957 393.991h532.348v320.21H604.957z" fill="#ce5c00" stroke="#ce5c00" stroke-width="16.979"/><path d="M619.712 698.716l501.703.121-.293-289.639-501.617.293.207 289.224h0z" fill="#f57900" stroke="#fcaf3e" stroke-width="14.856"/></g><path d="M655.699 460.534h23.057l39.42 70.267 39.632-70.267h23.057l-51.002 90.777 54.402 98.247h-23.057l-44.626-80.395-44.945 80.395h-23.163l56.633-100.906-49.408-88.118m156.83 0h31.982l40.483 128.633 40.695-128.633h31.982v189.024H936.74V483.576l-40.908 129.646h-21.569l-40.908-129.646v165.982h-20.826V460.534m187.856 0h21.463v167.501h77.246v21.523h-98.71V460.534" fill="#fff" stroke="#fff" stroke-width="12.759"/></g></svg>